<?xml version="1.0" encoding="utf-8"?>
<svg id="master-artboard" viewBox="0 0 341.40545654296875 625.2977905273438" version="1.1" xmlns="http://www.w3.org/2000/svg" x="0px" y="0px" width="341.40545654296875px" height="625.2977905273438px" enable-background="new 0 0 2272 1872"><rect id="ee-background" x="0" y="0" width="341.40545654296875" height="625.2977905273438" style="fill: white; fill-opacity: 0; pointer-events: none;"/>






<g transform="matrix(1, 0, 0, 1, -445.2735507488251, -209.835205078125)">
		<g>
			<g>
				<g>
					<g>
						<path fill="#BC5037" d="M530.618,827.393c-3.522-110.958,24.686-209.348,24.971-210.329l13.549,3.94&#10;&#9;&#9;&#9;&#9;&#9;&#9;&#9;c-0.279,0.96-27.865,97.303-24.417,205.94L530.618,827.393z" style="fill-opacity: 1;"/>
					</g>
					<g>
						<path fill="#BC5037" d="M514.74,808.716c-16.561,0-29.985,8.261-29.985,18.453h59.971&#10;&#9;&#9;&#9;&#9;&#9;&#9;&#9;C544.726,816.978,531.301,808.716,514.74,808.716z" style="fill-opacity: 1;"/>
					</g>
				</g>
			</g>
			<g>
				<g>
					<g>
						<path fill="#BC5037" d="M704.952,827.393c3.522-110.958-24.685-209.348-24.971-210.329l-13.549,3.94&#10;&#9;&#9;&#9;&#9;&#9;&#9;&#9;c0.279,0.96,27.865,97.303,24.417,205.94L704.952,827.393z" style="fill-opacity: 1;"/>
					</g>
					<g>
						<path fill="#BC5037" d="M720.83,808.716c16.561,0,29.986,8.261,29.986,18.453h-59.971&#10;&#9;&#9;&#9;&#9;&#9;&#9;&#9;C690.844,816.978,704.27,808.716,720.83,808.716z" style="fill-opacity: 1;"/>
					</g>
				</g>
			</g>
		</g>
		<g>
			<g>
				<path fill="#BC5037" d="M525.851,471.757l-3.173-5.296l-3.13-5.321c-2.506,1.474-59.874,37.089-62.883,195.14&#10;&#9;&#9;&#9;&#9;&#9;c-2.743,2.868-4.542,7.628-4.542,13.024c0,8.767,4.738,15.875,10.583,15.875s10.583-7.107,10.583-15.875&#10;&#9;&#9;&#9;&#9;&#9;c0-5.221-1.688-9.838-4.281-12.731C471.89,506.48,525.296,472.095,525.851,471.757z" style="fill-opacity: 1;"/>
				<path fill="#BC5037" d="M706.118,471.757l3.173-5.296l3.13-5.321c2.506,1.474,59.874,37.089,62.883,195.14&#10;&#9;&#9;&#9;&#9;&#9;c2.743,2.868,4.542,7.628,4.542,13.024c0,8.767-4.738,15.875-10.583,15.875c-5.845,0-10.583-7.107-10.583-15.875&#10;&#9;&#9;&#9;&#9;&#9;c0-5.221,1.688-9.838,4.281-12.731C760.078,506.48,706.672,472.095,706.118,471.757z" style="fill-opacity: 1;"/>
			</g>
		</g>
		<g>
			<g>
				
					<path d="M 582.744995 304.608002 H 660.422997 V 318.048001 H 582.744995 V 304.608002 Z" transform="matrix(0.0076 1 -1 0.0076 928.1901 -312.5981)" fill="#E26644" style="fill-opacity: 1;"/>
			</g>
		</g>
		<g>
			<g>
				<path d="M 653.261002 254.483002 A 33.597 33.597 0 0 1 619.664001 288.080002 A 33.597 33.597 0 0 1 586.067001 254.483002 A 33.597 33.597 0 0 1 619.664001 220.886002 A 33.597 33.597 0 0 1 653.261002 254.483002 Z" fill="#FFFFFF" style="fill-opacity: 1;"/>
			</g>
			<g>
				<g>
					<path fill="#E26644" d="M597.107,284.601c-16.607-12.438-19.999-36.068-7.561-52.675c12.438-16.607,36.068-19.999,52.676-7.561&#10;&#9;&#9;&#9;&#9;&#9;&#9;c16.607,12.439,19.999,36.068,7.56,52.675C637.344,293.647,613.714,297.039,597.107,284.601z M637.388,230.819&#10;&#9;&#9;&#9;&#9;&#9;&#9;c-13.048-9.773-31.615-7.108-41.388,5.94s-7.108,31.615,5.94,41.388c13.049,9.773,31.615,7.108,41.388-5.94&#10;&#9;&#9;&#9;&#9;&#9;&#9;S650.437,240.592,637.388,230.819z" style="fill-opacity: 1;"/>
				</g>
			</g>
		</g>
		<path d="M 625.038022 252.466995 A 4.703 4.703 0 0 1 620.335022 257.169995 A 4.703 4.703 0 0 1 615.632022 252.466995 A 4.703 4.703 0 0 1 620.335022 247.763995 A 4.703 4.703 0 0 1 625.038022 252.466995 Z" fill="#212121" style="fill-opacity: 1;"/>
		<path fill="#E26644" d="M619.689,739.858L619.689,739.858c-64.294,0-116.414-103.129-116.414-154.24V387.912&#10;&#9;&#9;&#9;c0-51.11,52.12-92.543,116.414-92.543h0c64.293,0,116.414,41.433,116.414,92.543v197.707&#10;&#9;&#9;&#9;C736.104,636.729,683.983,739.858,619.689,739.858z" style="fill-opacity: 1;"/>
		<path fill="#BC5037" d="M619.689,681.651L619.689,681.651c-48.018,0-90.361-40.15-115.418-82.762&#10;&#9;&#9;&#9;c7.475,53.771,56.298,140.969,115.418,140.969l0,0c59.12,0,107.943-87.197,115.418-140.969&#10;&#9;&#9;&#9;C710.05,641.501,667.707,681.651,619.689,681.651z" style="fill-opacity: 1;"/>
		<g>
			<g>
				<g>
					<path d="M 537.543991 387.130005 A 33.597 33.597 0 0 1 503.946991 420.727005 A 33.597 33.597 0 0 1 470.349991 387.130005 A 33.597 33.597 0 0 1 503.946991 353.533005 A 33.597 33.597 0 0 1 537.543991 387.130005 Z" fill="#FFFFFF" style="fill-opacity: 1;"/>
				</g>
				<g>
					<g>
						<path fill="#E26644" d="M503.947,424.759c-20.749,0-37.629-16.88-37.629-37.629c0-20.749,16.88-37.629,37.629-37.629&#10;&#9;&#9;&#9;&#9;&#9;&#9;&#9;s37.628,16.88,37.628,37.629C541.576,407.879,524.696,424.759,503.947,424.759z M503.947,357.565&#10;&#9;&#9;&#9;&#9;&#9;&#9;&#9;c-16.303,0-29.565,13.263-29.565,29.565s13.263,29.565,29.565,29.565c16.302,0,29.565-13.263,29.565-29.565&#10;&#9;&#9;&#9;&#9;&#9;&#9;&#9;S520.25,357.565,503.947,357.565z" style="fill-opacity: 1;"/>
					</g>
				</g>
			</g>
			<path d="M 507.978994 385.114014 A 4.704 4.704 0 0 1 503.274994 389.818014 A 4.704 4.704 0 0 1 498.570994 385.114014 A 4.704 4.704 0 0 1 503.274994 380.410014 A 4.704 4.704 0 0 1 507.978994 385.114014 Z" fill="#212121" style="fill-opacity: 1;"/>
		</g>
		<g>
			<g>
				<g>
					<path d="M 768.607986 387.130005 A 33.597 33.597 0 0 1 735.010986 420.727005 A 33.597 33.597 0 0 1 701.413986 387.130005 A 33.597 33.597 0 0 1 735.010986 353.533005 A 33.597 33.597 0 0 1 768.607986 387.130005 Z" fill="#FFFFFF" style="fill-opacity: 1;"/>
				</g>
				<g>
					<g>
						<path fill="#E26644" d="M735.011,424.759c-20.749,0-37.628-16.88-37.628-37.629c0-20.749,16.88-37.629,37.628-37.629&#10;&#9;&#9;&#9;&#9;&#9;&#9;&#9;c20.749,0,37.629,16.88,37.629,37.629C772.64,407.879,755.76,424.759,735.011,424.759z M735.011,357.565&#10;&#9;&#9;&#9;&#9;&#9;&#9;&#9;c-16.302,0-29.565,13.263-29.565,29.565s13.263,29.565,29.565,29.565c16.303,0,29.565-13.263,29.565-29.565&#10;&#9;&#9;&#9;&#9;&#9;&#9;&#9;S751.314,357.565,735.011,357.565z" style="fill-opacity: 1;"/>
					</g>
				</g>
			</g>
			<path d="M 739.042989 385.114014 A 4.704 4.704 0 0 1 734.338989 389.818014 A 4.704 4.704 0 0 1 729.634989 385.114014 A 4.704 4.704 0 0 1 734.338989 380.410014 A 4.704 4.704 0 0 1 739.042989 385.114014 Z" fill="#212121" style="fill-opacity: 1;"/>
		</g>
		<g>
			<path fill="#212121" d="M618.849,474.609c38.595,0,69.882-31.288,69.882-69.882H548.967&#10;&#9;&#9;&#9;&#9;C548.967,443.321,580.254,474.609,618.849,474.609z" style="fill-opacity: 1;"/>
			<path fill="#ED8A6B" d="M662.002,459.671c-10.403-15.023-25.87-24.561-43.153-24.561s-32.75,9.538-43.153,24.561&#10;&#9;&#9;&#9;&#9;c11.884,9.347,26.861,14.938,43.153,14.938C635.142,474.609,650.119,469.018,662.002,459.671z" style="fill-opacity: 1;"/>
		</g>
	</g>
</svg>