<?xml version="1.0" encoding="utf-8"?>
<svg id="master-artboard" viewBox="0 0 302.3401184082031 474.3256530761719" version="1.1" xmlns="http://www.w3.org/2000/svg" x="0px" y="0px" width="302.3401184082031px" height="474.3256530761719px" enable-background="new 0 0 2272 1872"><rect id="ee-background" x="0" y="0" width="302.3401184082031" height="474.3256530761719" style="fill: white; fill-opacity: 0; pointer-events: none;"/>





<g transform="matrix(1, 0, 0, 1, -989.4427433013916, -366.716552734375)">
		<g>
			<g>
				
					<path d="M 1038.694946 454.743011 H 1116.372948 V 468.183011 H 1038.694946 V 454.743011 Z" transform="matrix(0.6055 0.7958 -0.7958 0.6055 792.3048 -675.494)" fill="#B4D996"/>
			</g>
		</g>
		<g>
			<g>
				
					<path d="M 1159.64502 448.023987 H 1237.323021 V 461.463986 H 1159.64502 V 448.023987 Z" transform="matrix(-0.6055 0.7958 -0.7958 -0.6055 2286.0952 -223.6768)" fill="#B4D996"/>
			</g>
		</g>
		<g>
			<path fill="#A0BE88" d="M1016.645,705.38c-0.505-14.588,2.595-47.098,32.136-89.564l-11.032-7.675&#10;&#9;&#9;&#9;&#9;c-32.646,46.928-35.473,82.934-34.521,99.33c-2.634,3.205-4.311,7.998-4.311,13.362c0,9.648,5.415,17.47,12.095,17.47&#10;&#9;&#9;&#9;&#9;s12.095-7.822,12.095-17.47C1023.106,714.125,1020.486,708.308,1016.645,705.38z"/>
			<path fill="#A0BE88" d="M1276.822,707.472c0.951-16.396-1.877-52.402-34.521-99.33l-11.032,7.675&#10;&#9;&#9;&#9;&#9;c29.541,42.466,32.641,74.976,32.136,89.564c-3.841,2.927-6.462,8.745-6.462,15.454c0,9.648,5.415,17.47,12.096,17.47&#10;&#9;&#9;&#9;&#9;c6.68,0,12.095-7.822,12.095-17.47C1281.133,715.47,1279.456,710.677,1276.822,707.472z"/>
		</g>
		<g>
			<path fill="#A0BE88" d="M1115.458,693.964l-2.731-6.139l-2.647-6.176c-2.009,0.861-47.384,21.658-48.501,133.3&#10;&#9;&#9;&#9;&#9;c-3.542-1.355-7.637-2.143-12.014-2.143c-13.36,0-24.19,7.22-24.19,16.127h36.284c0.001,0.05,0.001,0.099,0.002,0.149&#10;&#9;&#9;&#9;&#9;l6.718-0.149h5.375c0-0.041-0.008-0.079-0.009-0.12l1.352-0.03C1072.57,715.102,1115.029,694.162,1115.458,693.964z"/>
			<path fill="#A0BE88" d="M1167.782,693.964l2.73-6.139l2.647-6.176c2.009,0.861,47.384,21.658,48.501,133.3&#10;&#9;&#9;&#9;&#9;c3.543-1.355,7.637-2.143,12.015-2.143c13.359,0,24.189,7.22,24.189,16.127h-36.283c-0.001,0.05-0.002,0.099-0.003,0.149&#10;&#9;&#9;&#9;&#9;l-6.718-0.149h-5.376c0-0.041,0.009-0.079,0.01-0.12l-1.352-0.03C1210.67,715.102,1168.211,694.162,1167.782,693.964z"/>
		</g>
		<g>
			<g>
				<path d="M 1075.518021 417.115997 A 33.597 33.597 0 0 1 1041.921021 450.712997 A 33.597 33.597 0 0 1 1008.32402 417.115997 A 33.597 33.597 0 0 1 1041.921021 383.518997 A 33.597 33.597 0 0 1 1075.518021 417.115997 Z" fill="#FFFFFF"/>
			</g>
			<g>
				<path fill="#B4D996" d="M1041.921,454.745c-20.749,0-37.628-16.88-37.628-37.629c0-20.749,16.88-37.629,37.628-37.629&#10;&#9;&#9;&#9;&#9;&#9;c20.749,0,37.629,16.88,37.629,37.629C1079.55,437.865,1062.67,454.745,1041.921,454.745z M1041.921,387.55&#10;&#9;&#9;&#9;&#9;&#9;c-16.302,0-29.565,13.263-29.565,29.565s13.263,29.565,29.565,29.565c16.303,0,29.565-13.263,29.565-29.565&#10;&#9;&#9;&#9;&#9;&#9;S1058.224,387.55,1041.921,387.55z"/>
			</g>
		</g>
		<g>
			<g>
				<path d="M 1265.006058 410.395996 A 33.597 33.597 0 0 1 1231.409058 443.992996 A 33.597 33.597 0 0 1 1197.812057 410.395996 A 33.597 33.597 0 0 1 1231.409058 376.798996 A 33.597 33.597 0 0 1 1265.006058 410.395996 Z" fill="#FFFFFF"/>
			</g>
			<g>
				<path fill="#B4D996" d="M1231.409,448.697c-21.119,0-38.301-17.181-38.301-38.3s17.182-38.301,38.301-38.301&#10;&#9;&#9;&#9;&#9;&#9;c21.118,0,38.301,17.182,38.301,38.301S1252.527,448.697,1231.409,448.697z M1231.409,381.503&#10;&#9;&#9;&#9;&#9;&#9;c-15.933,0-28.894,12.962-28.894,28.894s12.961,28.894,28.894,28.894s28.894-12.962,28.894-28.894&#10;&#9;&#9;&#9;&#9;&#9;S1247.342,381.503,1231.409,381.503z"/>
			</g>
		</g>
		<path fill="#B4D996" d="M1262.318,552.176c0,66.427-53.851,218.381-120.277,218.381c-66.428,0-120.278-151.954-120.278-218.381&#10;&#9;&#9;&#9;c0-66.428,53.851-120.278,120.278-120.278C1208.468,431.898,1262.318,485.749,1262.318,552.176z"/>
		<path fill="#A0BE88" d="M1142.041,718.656c-46.449,0-87.997-59.109-115.73-125.935c14.302,73.552,60.7,177.836,115.73,177.836&#10;&#9;&#9;&#9;c55.03,0,101.428-104.284,115.729-177.836C1230.037,659.547,1188.488,718.656,1142.041,718.656z"/>
		<path d="M 1045.953023 415.100006 A 4.704 4.704 0 0 1 1041.249023 419.804006 A 4.704 4.704 0 0 1 1036.545023 415.100006 A 4.704 4.704 0 0 1 1041.249023 410.396006 A 4.704 4.704 0 0 1 1045.953023 415.100006 Z" fill="#212121"/>
		<path d="M 1236.785055 411.067993 A 4.704 4.704 0 0 1 1232.081055 415.771993 A 4.704 4.704 0 0 1 1227.377055 411.067993 A 4.704 4.704 0 0 1 1232.081055 406.363993 A 4.704 4.704 0 0 1 1236.785055 411.067993 Z" fill="#212121"/>
		<g>
			<path fill="#212121" d="M1142.713,590.477c38.595,0,69.882-31.288,69.882-69.882h-139.764&#10;&#9;&#9;&#9;&#9;C1072.831,559.189,1104.118,590.477,1142.713,590.477z"/>
			<path fill="#ED8A6B" d="M1185.865,575.539c-10.402-15.023-25.869-24.561-43.152-24.561c-17.284,0-32.751,9.538-43.154,24.561&#10;&#9;&#9;&#9;&#9;c11.884,9.347,26.861,14.938,43.154,14.938C1159.005,590.477,1173.981,584.886,1185.865,575.539z"/>
		</g>
	</g>

</svg>