<?xml version="1.0" encoding="utf-8"?>
<svg id="master-artboard" viewBox="0 0 484.5451354980469 412.0529479980469" version="1.1" xmlns="http://www.w3.org/2000/svg" x="0px" y="0px" width="484.5451354980469px" height="412.0529479980469px" enable-background="new 0 0 2272 1872"><rect id="ee-background" x="0" y="0" width="484.5451354980469" height="412.0529479980469" style="fill: white; fill-opacity: 0; pointer-events: none;"/>




<g transform="matrix(1, 0, 0, 1, -1413.8190813064575, -422.07000732421875)">
		<g>
			<path fill="#41A2C9" d="M1454.08,673.631c-0.506-14.587,2.595-47.098,32.136-89.563l-11.032-7.675&#10;&#9;&#9;&#9;&#9;c-32.646,46.927-35.473,82.933-34.521,99.33c-2.634,3.205-4.311,7.998-4.311,13.362c0,9.649,5.415,17.47,12.095,17.47&#10;&#9;&#9;&#9;&#9;s12.095-7.821,12.095-17.47C1460.541,682.376,1457.92,676.558,1454.08,673.631z"/>
			<path fill="#41A2C9" d="M1881.822,681.014c0.951-16.396-1.876-52.402-34.521-99.33l-11.032,7.675&#10;&#9;&#9;&#9;&#9;c29.541,42.465,32.642,74.976,32.136,89.563c-3.841,2.927-6.461,8.745-6.461,15.454c0,9.649,5.415,17.471,12.095,17.471&#10;&#9;&#9;&#9;&#9;s12.095-7.822,12.095-17.471C1886.133,689.012,1884.456,684.219,1881.822,681.014z"/>
		</g>
		<g>
			<path fill="#41A2C9" d="M1585.399,689.554l-2.731-6.139l-2.647-6.176c-2.009,0.861-47.383,21.658-48.501,133.3&#10;&#9;&#9;&#9;&#9;c-3.543-1.355-7.637-2.142-12.015-2.142c-13.359,0-24.189,7.22-24.189,16.126h36.284c0.001,0.05,0.001,0.099,0.002,0.149&#10;&#9;&#9;&#9;&#9;l6.718-0.149h5.376c0-0.041-0.009-0.079-0.009-0.12l1.352-0.03C1542.512,710.691,1584.97,689.752,1585.399,689.554z"/>
			<path fill="#41A2C9" d="M1731.794,689.554l2.731-6.139l2.646-6.176c2.009,0.861,47.384,21.658,48.501,133.3&#10;&#9;&#9;&#9;&#9;c3.543-1.355,7.638-2.142,12.015-2.142c13.359,0,24.189,7.22,24.189,16.126h-36.283c-0.001,0.05-0.001,0.099-0.003,0.149&#10;&#9;&#9;&#9;&#9;l-6.718-0.149h-5.375c0-0.041,0.008-0.079,0.009-0.12l-1.352-0.03C1774.682,710.691,1732.223,689.752,1731.794,689.554z"/>
		</g>
		<g>
			<g>
				<g>
					
						<path d="M 1763.296997 487.237 H 1840.973999 V 500.676999 H 1763.296997 V 487.237 Z" transform="matrix(-0.8968 0.4425 -0.4425 -0.8968 3636.8081 139.4655)" fill="#50BDF5"/>
				</g>
			</g>
			<g>
				<path d="M 1884.972977 468.93399 A 33.597 33.597 0 0 1 1851.375977 502.530991 A 33.597 33.597 0 0 1 1817.778976 468.93399 A 33.597 33.597 0 0 1 1851.375977 435.33699 A 33.597 33.597 0 0 1 1884.972977 468.93399 Z" fill="#FFFFFF"/>
			</g>
			<g>
				<g>
					<path fill="#50BDF5" d="M1834.305,503.219c-18.905-9.414-26.627-32.452-17.214-51.357&#10;&#9;&#9;&#9;&#9;&#9;&#9;c9.413-18.905,32.452-26.627,51.357-17.214c18.904,9.414,26.627,32.453,17.214,51.357&#10;&#9;&#9;&#9;&#9;&#9;&#9;C1876.249,504.91,1853.21,512.632,1834.305,503.219z M1864.255,443.069c-14.263-7.102-31.642-1.276-38.743,12.986&#10;&#9;&#9;&#9;&#9;&#9;&#9;s-1.276,31.642,12.986,38.743c14.262,7.102,31.642,1.276,38.743-12.986C1884.342,467.55,1878.518,450.17,1864.255,443.069z"/>
				</g>
			</g>
			<path d="M 1856.381979 469.834015 A 4.704 4.704 0 0 1 1851.677979 474.538015 A 4.704 4.704 0 0 1 1846.973979 469.834015 A 4.704 4.704 0 0 1 1851.677979 465.130015 A 4.704 4.704 0 0 1 1856.381979 469.834015 Z" fill="#212121"/>
		</g>
		<g>
			<g>
				<g>
					
						<path d="M 1472.608032 490.764008 H 1550.286034 V 504.204007 H 1472.608032 V 490.764008 Z" transform="matrix(0.8968 0.4425 -0.4425 0.8968 376.1664 -617.4597)" fill="#50BDF5"/>
				</g>
			</g>
			<g>
				<path d="M 1495.803055 472.460999 A 33.597 33.597 0 0 1 1462.206055 506.057999 A 33.597 33.597 0 0 1 1428.609055 472.460999 A 33.597 33.597 0 0 1 1462.206055 438.863998 A 33.597 33.597 0 0 1 1495.803055 472.460999 Z" fill="#FFFFFF"/>
			</g>
			<g>
				<g>
					<path fill="#50BDF5" d="M1427.92,489.533c-9.412-18.905-1.69-41.944,17.215-51.357c18.905-9.413,41.943-1.691,51.357,17.214&#10;&#9;&#9;&#9;&#9;&#9;&#9;c9.413,18.905,1.69,41.944-17.215,51.357C1460.373,516.16,1437.334,508.438,1427.92,489.533z M1436.342,485.34&#10;&#9;&#9;&#9;&#9;&#9;&#9;c7.101,14.262,24.48,20.087,38.743,12.986c14.262-7.101,20.087-24.481,12.985-38.743c-7.101-14.262-24.48-20.087-38.743-12.986&#10;&#9;&#9;&#9;&#9;&#9;&#9;C1435.065,453.698,1429.24,471.078,1436.342,485.34z"/>
				</g>
			</g>
			<path d="M 1466.608053 473.362 A 4.704 4.704 0 0 1 1461.904053 478.066 A 4.704 4.704 0 0 1 1457.200053 473.362 A 4.704 4.704 0 0 1 1461.904053 468.658 A 4.704 4.704 0 0 1 1466.608053 473.362 Z" fill="#212121"/>
		</g>
		<path d="M 1857.91095 622.562988 A 196.669006 161.391998 0 0 1 1661.241943 783.954987 A 196.669006 161.391998 0 0 1 1464.572937 622.562988 A 196.669006 161.391998 0 0 1 1661.241943 461.17099 A 196.669006 161.391998 0 0 1 1857.91095 622.562988 Z" fill="#50BDF5"/>
		<path fill="#41A2C9" d="M1661.242,746.821c-82.723,0-154.835-37.242-192.83-92.403c18.023,73.876,97.502,129.537,192.83,129.537&#10;&#9;&#9;&#9;s174.807-55.66,192.83-129.537C1816.077,709.579,1743.965,746.821,1661.242,746.821z"/>
		<g>
			<path fill="#212121" d="M1661.284,666.868c63.783,0,115.49-53.398,115.49-119.27h-230.98&#10;&#9;&#9;&#9;&#9;C1545.794,613.47,1597.501,666.868,1661.284,666.868z"/>
			<path fill="#ED8A6B" d="M1732.602,641.374c-17.192-25.641-42.754-41.919-71.317-41.919s-54.125,16.278-71.317,41.919&#10;&#9;&#9;&#9;&#9;c19.64,15.952,44.393,25.494,71.317,25.494S1712.961,657.326,1732.602,641.374z"/>
		</g>
	</g>


</svg>