<?xml version="1.0" encoding="utf-8"?>
<svg id="master-artboard" viewBox="0 0 381.23040771484375 287.2859191894531" version="1.1" xmlns="http://www.w3.org/2000/svg" x="0px" y="0px" style="enable-background:new 0 0 1400 980;" width="381.23040771484375px" height="287.2859191894531px"><rect id="ee-background" x="0" y="0" width="381.23040771484375" height="287.2859191894531" style="fill: white; fill-opacity: 0; pointer-events: none;"/>

<g transform="matrix(1, 0, 0, 1, -104.5838394165039, -36.911943435668945)">
			<path class="st9" d="M411.7,60.1l-10.7-3c0,0,20.4,16.3,4.6,42.8c-15.7,26.4,33.5,2.4,28.4-21.3c-5.2-23.7-6.3-16.2-6.3-16.2&#10;&#9;&#9;&#9;&#9;L411.7,60.1z" style="fill-rule: evenodd; clip-rule: evenodd; fill: rgb(196, 219, 66);"/>
			<path class="st14" d="M427,44.4l-6.5,18.1c0,0,8.8,2.3,6,24.1c-2.8,21.8-2.8,21.8-2.8,21.8l11.5,3c0,0,1.8-36.2,20.5-21.1&#10;&#9;&#9;&#9;&#9;C474.3,105.4,476.6,67.5,427,44.4z" style="fill-rule: evenodd; clip-rule: evenodd; fill: rgb(134, 170, 0);"/>
			<path class="st15" d="M409.3,92.4c0.9,7.6,28.2,9.3,26.5,16c-66.2,260.4-378.6,127.2-314.7,36.7&#10;&#9;&#9;&#9;&#9;C137.3,122,257.8,276.4,409.3,92.4z" style="fill-rule: evenodd; clip-rule: evenodd; fill: rgb(250, 186, 3);"/>
			<path class="st16" d="M410.7,88.3C335.6,274.5,96.5,179.7,122.5,141C138.3,117.6,259.3,272.3,410.7,88.3z" style="fill-rule: evenodd; clip-rule: evenodd; fill: rgb(254, 226, 82);"/>
			
				<path d="M 136.3 146.5 A 13.3 6.9 0 0 1 123 153.4 A 13.3 6.9 0 0 1 109.7 146.5 A 13.3 6.9 0 0 1 123 139.6 A 13.3 6.9 0 0 1 136.3 146.5 Z" transform="matrix(0.7043 -0.7099 0.7099 0.7043 -67.6536 130.6624)" class="st13" style="fill-rule: evenodd; clip-rule: evenodd;"/>
			<path d="M 401 57.099998474121094 L 420.5 62.400001525878906 L 428.8999938964844 45.20000076293945 L 412 40.20000076293945 Z" class="st7" style="fill-rule: evenodd; clip-rule: evenodd; fill: rgb(239, 239, 93);"/>
		</g><path class="st9" d="M419.1,78.6L408,78.4c0,0,23.8,10.7,15.2,40.3c-8.6,29.5,33.1-6.1,22.2-27.7c-10.9-21.7-10.1-14.1-10.1-14.1&#10;&#9;&#9;&#9;&#9;L419.1,78.6z" style="fill-rule: evenodd; clip-rule: evenodd; fill: rgb(196, 219, 66);" transform="matrix(1, 0, 0, 1, -104.5838394165039, -36.911943435668945)"/><path class="st14" d="M430,59.5l-1.8,19.1c0,0,9.1,0,11.8,21.9c2.7,21.9,2.7,21.9,2.7,21.9h11.8c0,0-7.3-35.5,14.6-25.5&#10;&#9;&#9;&#9;&#9;C491,106.9,483.8,69.5,430,59.5z" style="fill-rule: evenodd; clip-rule: evenodd; fill: rgb(134, 170, 0);" transform="matrix(1, 0, 0, 1, -104.5838394165039, -36.911943435668945)"/><path class="st15" d="M424.8,110.4c2.8,7.1,29.6,2,29.7,8.9c0.9,268.7-334.9,217.6-295.6,114C168.9,207,324,326.5,424.8,110.4z" style="fill-rule: evenodd; clip-rule: evenodd; fill: rgb(250, 186, 3);" transform="matrix(1, 0, 0, 1, -104.5838394165039, -36.911943435668945)"/><path class="st16" d="M425.2,106.1c-26.3,199.1-281.5,167-266,123C168.6,202.4,324.4,322.1,425.2,106.1z" style="fill-rule: evenodd; clip-rule: evenodd; fill: rgb(254, 226, 82);" transform="matrix(1, 0, 0, 1, -104.5838394165039, -36.911943435668945)"/><path d="M 174.400006 234.300003 A 13.3 6.9 0 0 1 161.100006 241.200003 A 13.3 6.9 0 0 1 147.800006 234.300003 A 13.3 6.9 0 0 1 161.100006 227.400003 A 13.3 6.9 0 0 1 174.400006 234.300003 Z" transform="matrix(0.5048999786376953, -0.8632000088691711, 0.8632000088691711, 0.5048999786376953, -227.07774353027344, 218.16175270080566)" class="st13" style="fill-rule: evenodd; clip-rule: evenodd;"/><path d="M 408 78.4000015258789 L 428.20001220703125 78.5999984741211 L 432 59.900001525878906 L 414.3999938964844 59.20000076293945 Z" class="st7" style="fill-rule: evenodd; clip-rule: evenodd; fill: rgb(239, 239, 93);" transform="matrix(1, 0, 0, 1, -104.5838394165039, -36.911943435668945)"/>
</svg>