<?xml version="1.0" encoding="utf-8"?>
<svg id="master-artboard" viewBox="0 0 516.57421875 466.924072265625" version="1.1" xmlns="http://www.w3.org/2000/svg" x="0px" y="0px" width="516.57421875px" height="466.924072265625px" enable-background="new 0 0 1400 980"><rect id="ee-background" x="0" y="0" width="516.57421875" height="466.924072265625" style="fill: white; fill-opacity: 0; pointer-events: none;"/>




<g transform="matrix(1, 0, 0, 1, -15.995174407958984, -71.36308288574219)">
	<path fill="#0C0C0C" d="M436.205,325.475c14.678,2.354,25.422,16.839,36.829,23.865c18.688,13.084,35.073,26.717,53.761,39.802&#10;&#9;&#9;c-5.717-22.009-30.415-41.943-46.315-57.637c-6.251-5.816-16.754-21.333-26.517-21.447c-6.43-0.42-15.275,9.472-10.54,17.11&#10;&#9;&#9;L436.205,325.475z"/>
	<path fill="#AFAAA0" d="M376.056,279.995c-7.542-8.056-14.679-22.303-14.864-34.921c0.856-25.996,32.16-34.373,33.017-60.368&#10;&#9;&#9;c0.562-29.208-32.462-53.716-52.511-70.992c-7.015-5.836-56.937-52.122-52.766-20.756c1.768,19.276,39.339,33.325,34.743,57.396&#10;&#9;&#9;c-2.096,8.938-17.104,14.85-24.166,22.625c-7.062,7.774-12.371,17.009-14.7,26.939c-8.323,39.963,43.633,73.104,77.637,80.029" style="fill: rgb(255, 255, 255);"/>
	<path fill="#CCC7BE" d="M398.998,282.808c12.77-1.171,31.34-9.312,43.883-3.594c18.815,8.577,18.916,37.757,1.044,48.838&#10;&#9;&#9;c-9.748,6.045-27.165,3.35-37.612,6.454c-14.394,2.178-29.406,6.989-42.794,10.791c-29.715,8.305-66.629,17.699-96.506,14.858&#10;&#9;&#9;c-46.598-2.597-78.283-39.183-98.513-77.248c-10.774-19.187-19.142-30.868-36.723-44.709c-9.294-7.733-23.462-12.443-23.316-24.906&#10;&#9;&#9;c13.079-2.485,28.254,3.849,37.548,11.582c-5.264-1.234-35.306-15.22-27.265-25.832c6.417-9.603,28.954,6.79,34.917,10.964&#10;&#9;&#9;c-7.279-4.484-12.316-12.606-11.781-20.811c19.886-7.833,44.909,21.637,62.716,28.589c24.08,9.812,47.995,8.478,73.926,10.393&#10;&#9;&#9;c47.296,5.537,84.309,25.323,119.162,54.322" style="fill: rgb(255, 255, 255);"/>
	<path fill="#CCC7BE" d="M371.642,340.261c-13.695,5.118-30.559,17.825-38.21,32.691c-14.295,31.359,17.925,59.741,3.63,91.099&#10;&#9;&#9;c-16.538,34.998-70.168,44.637-104.14,53.33c-11.764,2.797-98.277,28.328-74.852-6.441c13.45-21.841,66.319-16.384,75.042-47.661&#10;&#9;&#9;c2.777-11.844-11.554-27.701-15.356-41.087c-3.803-13.388-4.666-27.474-1.58-40.634c13.66-52.333,94.847-61.065,139.284-49.257" style="fill: rgb(255, 255, 255);"/>
	<path d="M 446.687998 303.097992 A 11.49 11.49 0 0 1 435.197998 314.587992 A 11.49 11.49 0 0 1 423.707998 303.097992 A 11.49 11.49 0 0 1 435.197998 291.607992 A 11.49 11.49 0 0 1 446.687998 303.097992 Z" fill="#FFFFFF"/>
	<g>
		<path fill="#0C0C0C" d="M433.824,291.01c-11.253,3.308-15.161,18.053-5.538,25.402c5.354,4.088,11.372,1.633,15.209-3.2&#10;&#9;&#9;&#9;c3.888-4.897,6.217-11.986,4.737-18.192c-1.875-7.865-10.434-7.871-16.732-5.942c-1.844,0.565-1.057,3.461,0.798,2.893&#10;&#9;&#9;&#9;c4.631-1.418,11.039-2.287,12.921,3.422c1.437,4.358-0.26,9.572-2.369,13.409c-1.911,3.478-5.546,7.596-9.968,6.644&#10;&#9;&#9;&#9;c-3.161-0.681-5.717-4.015-6.859-6.81c-2.426-5.937,3.039-13.098,8.598-14.732C436.473,293.358,435.685,290.463,433.824,291.01&#10;&#9;&#9;&#9;L433.824,291.01z"/>
	</g>
	<g>
		<path fill="#0C0C0C" d="M442.064,306.639c-1.969-0.537-3.323-2.467-5.438-2.61c-3.387-0.23-5.409,3.949-6.704,6.404&#10;&#9;&#9;&#9;c-0.783,1.485,1.126,3.061,2.356,1.817c1.622-1.639,3.316-3.357,5.564-4.073c1.595-0.508,3.252-0.71,4.838-1.277&#10;&#9;&#9;&#9;c-0.385-0.914-0.771-1.828-1.156-2.742c-4.06,2.565-7.639,5.791-11.682,8.368c-1.625,1.036-0.138,3.615,1.514,2.591&#10;&#9;&#9;&#9;c3.666-2.274,7.177-4.671,10.36-7.596c1.261-1.158-0.375-3.252-1.817-2.356c-3.091,1.92-6.304,3.836-8.735,6.589&#10;&#9;&#9;&#9;c-0.782,0.885-0.347,2.691,1.061,2.561c1.915-0.178,3.846-0.384,5.731-0.771c2.112-0.433,3.098-2.866,0.55-3.574&#10;&#9;&#9;&#9;c0.349,0.615,0.698,1.23,1.047,1.845c-0.938-0.048-1.877-0.096-2.815-0.144c0.835,0.486,1.671,0.973,2.507,1.459&#10;&#9;&#9;&#9;c0.309-1.316,0.617-2.632,0.926-3.948c0.441-1.881-2.438-2.679-2.893-0.798c-0.278,1.149-0.519,1.993-1.553,2.743&#10;&#9;&#9;&#9;c0.606,0.786,1.212,1.571,1.818,2.356c0.581-0.714,1.224-1.57,0.924-2.546c-0.625-2.03-2.928-0.787-4.058-0.118&#10;&#9;&#9;&#9;c-1.664,0.984-0.155,3.578,1.514,2.591c0.221-0.13,0.441-0.261,0.662-0.391c0.644-0.23,0.656-0.309,0.038-0.236&#10;&#9;&#9;&#9;c-0.349-0.35-0.699-0.699-1.048-1.048c-0.264-0.857,0.148-0.741-0.152-0.372c-0.99,1.217,0.333,3.434,1.818,2.356&#10;&#9;&#9;&#9;c1.657-1.203,2.452-2.555,2.931-4.536c-0.964-0.266-1.928-0.532-2.893-0.798c-0.309,1.316-0.617,2.632-0.926,3.948&#10;&#9;&#9;&#9;c-0.363,1.547,1.367,2.385,2.507,1.459c1.082-0.879,1.982-2.658,0.775-3.865c-1.184-1.185-2.503-0.111-2.973,1.089&#10;&#9;&#9;&#9;c-0.299,0.764,0.322,1.644,1.047,1.845c0.331-0.859,0.326-1.641-0.015-2.346c-0.275,0.091-0.568,0.141-0.852,0.199&#10;&#9;&#9;&#9;c-0.616,0.126-1.243,0.212-1.866,0.294c-0.914,0.12-1.832,0.219-2.75,0.304c0.354,0.854,0.707,1.707,1.061,2.561&#10;&#9;&#9;&#9;c2.271-2.57,5.242-4.327,8.128-6.119c-0.605-0.786-1.211-1.571-1.817-2.356c-2.998,2.754-6.304,4.986-9.753,7.126&#10;&#9;&#9;&#9;c0.504,0.864,1.009,1.727,1.514,2.591c4.043-2.577,7.623-5.802,11.682-8.368c1.386-0.876,0.504-3.335-1.156-2.742&#10;&#9;&#9;&#9;c-1.812,0.647-3.734,0.858-5.536,1.515c-2.444,0.892-4.398,2.794-6.19,4.606c0.785,0.606,1.57,1.212,2.356,1.817&#10;&#9;&#9;&#9;c0.575-1.089,2.478-5.662,4.336-4.803c1.556,0.719,2.712,1.923,4.417,2.389C443.136,310.042,443.928,307.147,442.064,306.639&#10;&#9;&#9;&#9;L442.064,306.639z"/>
	</g>
	<g>
		<path fill="#0C0C0C" d="M177.789,304.441c-13.796-6.921-24.666-18.26-38.832-24.691c-14.939-6.782-32.018-6.662-47.474-11.845&#10;&#9;&#9;&#9;c-10.877-3.648-18.88-11.782-27.8-18.619c-3.304-2.532-14.324-12.581-18.799-7.281c-1.24,1.468,0.871,3.601,2.121,2.121&#10;&#9;&#9;&#9;c3.159-3.741,19.601,11.256,21.946,13.151c8.325,6.727,15.871,11.923,26.343,14.958c14.991,4.346,30.622,4.89,45.007,11.4&#10;&#9;&#9;&#9;c13.134,5.944,23.143,16.959,35.974,23.396C177.999,307.897,179.518,305.309,177.789,304.441L177.789,304.441z"/>
	</g>
	<g>
		<path fill="#0C0C0C" d="M79.837,264.159C76.743,250.1,64.396,240.7,52.81,233.483c-1.647-1.026-3.152,1.57-1.514,2.591&#10;&#9;&#9;&#9;c10.932,6.808,22.725,15.595,25.649,28.883C77.36,266.846,80.252,266.045,79.837,264.159L79.837,264.159z"/>
	</g>
	<g>
		<path fill="#0C0C0C" d="M76.159,262.495c-9.282-2.36-17.847-6.9-26.712-10.429c-1.799-0.716-2.573,2.187-0.798,2.893&#10;&#9;&#9;&#9;c8.856,3.525,17.435,8.07,26.712,10.429C77.237,265.865,78.033,262.972,76.159,262.495L76.159,262.495z"/>
	</g>
	<g>
		<path fill="#0C0C0C" d="M155.934,267.384c-7.174-4.871-15.099-8.162-23.191-11.171c-9.735-3.621-20.038-6.449-28.365-12.895&#10;&#9;&#9;&#9;c-5.653-4.375-10.053-10.172-14.707-15.533c-5.229-6.023-11.091-11.131-18.145-14.904c-1.706-0.912-3.221,1.678-1.515,2.591&#10;&#9;&#9;&#9;c14.133,7.558,21.043,21.887,33.664,31.065c15.179,11.039,35.137,12.84,50.745,23.438&#10;&#9;&#9;&#9;C156.024,271.064,157.523,268.464,155.934,267.384L155.934,267.384z"/>
	</g>
	<g>
		<path fill="#0C0C0C" d="M93.386,234.641c-9.203-1.159-16.245-7.326-24.329-11.232c-1.734-0.837-3.256,1.749-1.515,2.591&#10;&#9;&#9;&#9;c8.661,4.184,15.999,10.402,25.844,11.641C95.302,237.882,95.278,234.879,93.386,234.641L93.386,234.641z"/>
	</g>
	<g>
		<path fill="#0C0C0C" d="M92.061,238.643c-7.233,1.006-14.06,0.382-20.877-2.305c-1.802-0.71-2.576,2.192-0.798,2.893&#10;&#9;&#9;&#9;c7.363,2.902,14.679,3.39,22.473,2.305C94.768,241.27,93.952,238.379,92.061,238.643L92.061,238.643z"/>
	</g>
	<g>
		<path fill="#0C0C0C" d="M202.792,257.553c19.888,22.485,49.428,35.004,77.998,42.123c27.294,6.801,58.03,9.644,85.417,1.792&#10;&#9;&#9;&#9;c1.856-0.532,1.066-3.427-0.798-2.893c-26.97,7.732-56.941,4.728-83.822-1.793c-28.072-6.809-57.187-19.319-76.674-41.351&#10;&#9;&#9;&#9;C203.628,253.979,201.515,256.109,202.792,257.553L202.792,257.553z"/>
	</g>
	<g>
		<path fill="#0C0C0C" d="M303.501,370.681c-10.722,11.419-8.237,26.056-4.311,39.882c1.747,6.151,4.041,12.258,4.638,18.659&#10;&#9;&#9;&#9;c0.47,5.033,0.284,10.133-0.073,15.167c-0.84,11.829-3.157,23.965-7.832,34.907c-3.503,8.199-9.983,18.179-20.279,16.024&#10;&#9;&#9;&#9;c-1.888-0.396-2.691,2.496-0.798,2.893c21.425,4.483,28.364-28.309,30.675-43.067c1.553-9.913,2.451-20.464,0.721-30.417&#10;&#9;&#9;&#9;c-2.986-17.186-15.034-36.575-0.62-51.927C306.945,371.393,304.828,369.268,303.501,370.681L303.501,370.681z"/>
	</g>
	<g>
		<path fill="#0C0C0C" d="M277.338,376.736c-5.141,2.501-9.243,8.868-10.02,14.424c-1.153,8.246,7.1,10.841,13.736,11.279&#10;&#9;&#9;&#9;c-0.133-0.982-0.266-1.964-0.399-2.946c-6.759,2.121-12.721,6.782-14.809,13.756c-2.188,7.311,3.443,12.924,9.594,15.615&#10;&#9;&#9;&#9;c0.119-0.914,0.093-1.828,0.212-2.742C260.209,432.387,256,451.674,272,460.06c0-0.864,0-1.727,0-2.591&#10;&#9;&#9;&#9;c-11,4.915-17.947,16.538-8.654,26.743c0.221-0.835,0.514-1.671,0.735-2.507c-9.495,1.929-17.776,7.94-18.854,18.101&#10;&#9;&#9;&#9;c-0.204,1.923,2.817,1.903,3.019,0c0.934-8.808,8.689-13.582,16.696-15.208c1.166-0.237,1.375-1.729,0.667-2.507&#10;&#9;&#9;&#9;c-8.055-8.846-0.827-18.024,8.194-22.031c1.031-0.458,0.93-2.101,0.001-2.591c-6.037-3.186-10.103-8.394-8.842-15.468&#10;&#9;&#9;&#9;c1.079-6.06,6.148-10.761,11.634-12.986c1.035-0.42,1.7-2.155,0.358-2.742c-5.654-2.473-9.89-6.63-7.94-13.144&#10;&#9;&#9;&#9;c1.635-5.464,7.317-9.137,12.439-10.744c1.655-0.519,1.281-2.835-0.399-2.946c-6.529-0.43-12.564-2.899-10.178-10.346&#10;&#9;&#9;&#9;c1.215-3.792,4.348-8.001,7.976-9.766C280.592,378.48,279.07,375.894,277.338,376.736L277.338,376.736z"/>
	</g>
	<g>
		<path fill="#0C0C0C" d="M255.105,373.918c-4.798-0.579-9.805,5.47-11.696,9.146c-4.186,8.135,2.59,14.706,9.332,18.264&#10;&#9;&#9;&#9;c0.12-0.914,0.239-1.828,0.358-2.742c-14.94,4.789-16.161,22.054-4.205,30.996c0.119-0.914,0.239-1.828,0.358-2.742&#10;&#9;&#9;&#9;c-17.095,4.019-8.269,24.949-9.434,36.98c-0.187,1.926,2.815,1.908,3,0c1-10.326-7.325-30.666,7.231-34.088&#10;&#9;&#9;&#9;c1.389-0.327,1.318-2.024,0.358-2.742c-9.911-7.413-8.836-21.561,3.489-25.512c1.176-0.377,1.562-2.106,0.358-2.742&#10;&#9;&#9;&#9;c-5.843-3.083-11.458-7.935-7.864-14.921c1.308-2.543,5.401-7.297,8.713-6.897C257.023,377.149,257.001,374.147,255.105,373.918&#10;&#9;&#9;&#9;L255.105,373.918z"/>
	</g>
	<g>
		<path fill="#0C0C0C" d="M339.924,128.652c16.367,15.618,30.729,35.016,23.968,58.769c-4.916,17.27-19.057,31.896-15.523,50.936&#10;&#9;&#9;&#9;c0.353,1.9,3.244,1.093,2.893-0.798c-3.746-20.188,13.941-36.882,17.035-56.099c3.566-22.154-11.263-40.628-26.251-54.929&#10;&#9;&#9;&#9;C340.646,125.196,338.522,127.314,339.924,128.652L339.924,128.652z"/>
	</g>
	<g>
		<path fill="#0C0C0C" d="M342.487,146.264c-9.007,6.129-6.908,14.533,0.949,20.699c0.101-0.785,0.202-1.57,0.304-2.356&#10;&#9;&#9;&#9;c-10.851,7.123-13.663,19.727-1.606,27.206c0.12-0.914,0.239-1.828,0.358-2.742c-5.234,1.946-10.186,4.911-12.099,10.431&#10;&#9;&#9;&#9;c-1.877,5.417,2.853,9.801,7.112,12.052c0.12-0.914,0.239-1.828,0.358-2.742c-3.494,0.708-6.978,1.749-8.795,5.05&#10;&#9;&#9;&#9;c-1.525,2.771-0.904,6.628-0.965,9.638c-0.04,1.936,2.96,1.932,3,0c0.047-2.333-0.161-4.724,0.233-7.034&#10;&#9;&#9;&#9;c0.587-3.442,4.474-4.183,7.325-4.762c1.269-0.257,1.47-2.154,0.358-2.742c-3.425-1.81-6.655-4.377-5.733-8.664&#10;&#9;&#9;&#9;c0.943-4.392,6.265-6.945,10.004-8.336c1.199-0.446,1.524-2.018,0.358-2.742c-10.146-6.293-7.255-16.208,1.605-22.024&#10;&#9;&#9;&#9;c0.727-0.477,1.107-1.726,0.304-2.356c-6.018-4.723-9.049-10.888-1.556-15.987C345.591,147.773,344.092,145.173,342.487,146.264&#10;&#9;&#9;&#9;L342.487,146.264z"/>
	</g>
	<g>
		<path fill="#0C0C0C" d="M319.906,171.515c-10.208,5.652-9.274,16.477-3.152,25.043c0.079-0.606,0.157-1.212,0.235-1.818&#10;&#9;&#9;&#9;c-1.982,2.129-5.018,4.564-5.653,7.583c-0.545,2.588,1.26,5.925,1.874,8.353c0.229-0.565,0.459-1.129,0.689-1.694&#10;&#9;&#9;&#9;c-4.237,2.957-3.392,5.22-4.166,9.8c-0.32,1.892,2.57,2.702,2.893,0.798c0.558-3.295-0.43-5.763,2.787-8.007&#10;&#9;&#9;&#9;c0.567-0.396,0.865-1,0.689-1.694c-0.547-2.165-1.591-4.419-1.838-6.643c-0.229-2.066,3.63-5.067,4.847-6.374&#10;&#9;&#9;&#9;c0.429-0.461,0.632-1.262,0.235-1.818c-5.109-7.148-6.772-16.039,2.075-20.938C323.113,173.168,321.6,170.577,319.906,171.515&#10;&#9;&#9;&#9;L319.906,171.515z"/>
	</g>
	<g>
		<path fill="#0C0C0C" d="M334.132,257.732c-5.679-1.753-12.039-0.194-14.86,5.419c-3.283,6.532,2.728,11.821,8.728,14.123&#10;&#9;&#9;&#9;c0-0.864,0-1.727,0-2.591c-8,3.895-17.081,10.633-11.923,20.25c0.915,1.706,3.417,0.19,2.503-1.514&#10;&#9;&#9;&#9;c-4.263-7.948,4.532-13.137,10.626-16.145c0.946-0.467,0.994-2.146-0.022-2.591c-4.211-1.843-9.802-5.412-7.132-10.723&#10;&#9;&#9;&#9;c2.061-4.099,7.454-4.519,11.288-3.335C335.194,261.197,335.975,258.301,334.132,257.732L334.132,257.732z"/>
	</g>
	<g>
		<path fill="#0C0C0C" d="M299.425,248.392c-4.503,0.954-8.629,2.845-10.341,7.374c-1.769,4.68,2.548,9.468,5.667,12.243&#10;&#9;&#9;&#9;c0.221-0.835,0.441-1.671,0.662-2.507c-7.979,3.319-14.326,11.455-10.941,20.351c0.681,1.79,3.582,1.014,2.893-0.798&#10;&#9;&#9;&#9;c-2.762-7.258,2.24-13.913,8.846-16.661c0.954-0.397,1.597-1.674,0.662-2.507c-2.691-2.395-5.708-5.391-4.896-9.325&#10;&#9;&#9;&#9;c0.718-3.48,5.366-4.668,8.246-5.278C302.115,250.884,301.312,247.992,299.425,248.392L299.425,248.392z"/>
	</g>
	<g>
		<path fill="#0C0C0C" d="M271.878,243.174c-5.13,0.404-12.364,2.117-15.333,6.869c-3.247,5.196,0.894,9.195,5.301,11.801&#10;&#9;&#9;&#9;c0.12-0.914,0.239-1.828,0.358-2.742c-9.312,2.513-13.896,9.483-8.856,18.386c0.953,1.683,3.545,0.172,2.591-1.514&#10;&#9;&#9;&#9;c-4.111-7.262-0.272-12,7.063-13.979c1.262-0.34,1.47-2.084,0.358-2.742c-1.984-1.172-4.037-2.348-4.96-4.615&#10;&#9;&#9;&#9;c-0.948-2.325,1.894-4.354,3.408-5.375c2.91-1.962,6.622-2.817,10.07-3.089C273.794,246.023,273.809,243.022,271.878,243.174&#10;&#9;&#9;&#9;L271.878,243.174z"/>
	</g>
	<g>
		<path fill="#0C0C0C" d="M238.529,234.348c-4.11,1.826-6.737,6.608-7.896,10.733c-1.561,5.557,1.018,10.445,5.591,13.533&#10;&#9;&#9;&#9;c1.609,1.085,3.108-1.515,1.515-2.591c-4.346-2.933-5.328-7.087-3.666-11.889c0.975-2.816,3.186-5.958,5.971-7.195&#10;&#9;&#9;&#9;C241.808,236.154,240.28,233.57,238.529,234.348L238.529,234.348z"/>
	</g>
	<g>
		<path fill="#0C0C0C" d="M123.106,214.04c5.854,2.798,10.903,7.221,14.411,12.686c1.042,1.622,3.639,0.119,2.591-1.515&#10;&#9;&#9;&#9;c-3.774-5.878-9.179-10.747-15.487-13.762C122.885,210.619,121.362,213.206,123.106,214.04L123.106,214.04z"/>
	</g>
	<g>
		<path fill="#0C0C0C" d="M142.044,201.846c7.842,0.723,14.454,4.753,20.078,10.071c1.404,1.328,3.529-0.79,2.121-2.121&#10;&#9;&#9;&#9;c-6.244-5.904-13.523-10.15-22.199-10.95C140.117,198.668,140.134,201.67,142.044,201.846L142.044,201.846z"/>
	</g>
	<g>
		<path fill="#0C0C0C" d="M369.092,309.063c-0.206,0.877-0.412,1.755-0.617,2.632c-0.187,0.795,0.237,1.623,1.047,1.845&#10;&#9;&#9;&#9;c0.765,0.21,1.659-0.251,1.845-1.047c0.206-0.877,0.412-1.755,0.617-2.632c0.187-0.795-0.237-1.623-1.047-1.845&#10;&#9;&#9;&#9;C370.172,307.805,369.279,308.267,369.092,309.063L369.092,309.063z"/>
	</g>
	<g>
		<path fill="#0C0C0C" d="M380.7,314.892c-0.72,0.469-1.336,1.021-1.893,1.673c-0.514,0.603-0.995,1.222-1.665,1.658&#10;&#9;&#9;&#9;c-1.615,1.051-0.113,3.649,1.514,2.591c0.72-0.469,1.337-1.021,1.893-1.673c0.515-0.603,0.995-1.222,1.666-1.658&#10;&#9;&#9;&#9;C383.83,316.432,382.328,313.833,380.7,314.892L380.7,314.892z"/>
	</g>
	<g>
		<path fill="#0C0C0C" d="M385.2,323.554c-1.923,2.973-4.799,3.662-8.145,3.985c-1.908,0.184-1.926,3.186,0,3&#10;&#9;&#9;&#9;c4.472-0.432,8.184-1.528,10.735-5.472C388.845,323.438,386.247,321.936,385.2,323.554L385.2,323.554z"/>
	</g>
	<g>
		<path fill="#0C0C0C" d="M342.427,317.207c0.248-0.472,4.017-0.282,4.581-0.29c2.736-0.041,5.476,0.082,8.21,0.171&#10;&#9;&#9;&#9;c1.936,0.063,1.929-2.937,0-3c-3.559-0.117-7.128-0.273-10.688-0.095c-1.524,0.076-3.875,0.14-4.694,1.7&#10;&#9;&#9;&#9;C338.938,317.404,341.527,318.921,342.427,317.207L342.427,317.207z"/>
	</g>
	<g>
		<path fill="#0C0C0C" d="M348.941,329.118c1.645-0.886,4.051-0.015,5.732,0.378c1.882,0.44,2.681-2.453,0.798-2.893&#10;&#9;&#9;&#9;c-2.601-0.608-5.543-1.423-8.045-0.076C345.723,327.444,347.238,330.035,348.941,329.118L348.941,329.118z"/>
	</g>
	<g>
		<path fill="#0C0C0C" d="M343.383,339.229c-0.187,0.044-0.375,0.086-0.563,0.123c-0.125,0.024-0.431,0.054,0.13-0.012&#10;&#9;&#9;&#9;c-0.316,0.037-0.086-0.224,0.623,0.198c0.229,0.299,0.459,0.598,0.689,0.896c-0.001-0.002-0.002-0.005-0.003-0.008&#10;&#9;&#9;&#9;c-0.05,0.385-0.101,0.771-0.151,1.156c-0.263,0.56-0.736,0.601-0.362,0.429c-0.529,0.243-0.114,0.052,0.017,0.005&#10;&#9;&#9;&#9;c0.339-0.122,0.686-0.221,1.034-0.313c0.392-0.104,0.789-0.189,1.189-0.252c-0.456,0.072,0.086-0.002,0.192-0.008&#10;&#9;&#9;&#9;c0.086-0.005,0.171-0.003,0.257-0.001c0.3,0.008-0.379-0.072-0.112-0.018c0.801,0.163,1.618-0.219,1.845-1.047&#10;&#9;&#9;&#9;c0.206-0.747-0.246-1.683-1.047-1.845c-1.381-0.28-2.929,0.155-4.229,0.62c-0.885,0.316-1.888,0.929-1.523,2.082&#10;&#9;&#9;&#9;c0.433,1.367,1.744,1.14,2.812,0.89c0.796-0.186,1.258-1.08,1.047-1.845C345.005,339.465,344.178,339.042,343.383,339.229&#10;&#9;&#9;&#9;L343.383,339.229z"/>
	</g>
	<g>
		<path fill="#0C0C0C" d="M310.546,316.373c4.825,1.131,9.65,2.263,14.476,3.394c1.882,0.441,2.681-2.451,0.798-2.893&#10;&#9;&#9;&#9;c-4.825-1.131-9.65-2.263-14.476-3.394C309.462,313.039,308.663,315.931,310.546,316.373L310.546,316.373z"/>
	</g>
	<g>
		<path fill="#0C0C0C" d="M314.068,326.438c2.056,2.797,6.647,3.425,9.801,4.166c1.882,0.442,2.681-2.451,0.798-2.893&#10;&#9;&#9;&#9;c-1.396-0.328-2.787-0.672-4.163-1.077c-1.083-0.319-3.127-0.733-3.845-1.71C315.526,323.382,312.921,324.876,314.068,326.438&#10;&#9;&#9;&#9;L314.068,326.438z"/>
	</g>
	<g>
		<path fill="#0C0C0C" d="M315.239,339.207c1.624,2.339,4.559,2.936,7.169,3.549c1.882,0.442,2.681-2.45,0.798-2.893&#10;&#9;&#9;&#9;c-1.625-0.382-4.336-0.672-5.376-2.17C316.735,336.116,314.133,337.613,315.239,339.207L315.239,339.207z"/>
	</g>
	<g>
		<path fill="#0C0C0C" d="M281.465,313.53c3.38-0.697,6.459,1.053,8.76,3.399c1.356,1.383,3.476-0.739,2.121-2.121&#10;&#9;&#9;&#9;c-3.097-3.16-7.219-5.091-11.679-4.171C278.773,311.028,279.577,313.92,281.465,313.53L281.465,313.53z"/>
	</g>
	<g>
		<path fill="#0C0C0C" d="M279.008,327.935c1.507,2.313,3.792,4.05,5.889,5.795c1.475,1.229,3.61-0.882,2.121-2.121&#10;&#9;&#9;&#9;c-1.869-1.556-4.075-3.125-5.419-5.188C280.547,324.807,277.948,326.309,279.008,327.935L279.008,327.935z"/>
	</g>
	<g>
		<path fill="#0C0C0C" d="M281.112,343.949c2.462,1.955,5.228,2.844,8.25,3.555c1.882,0.442,2.681-2.45,0.798-2.893&#10;&#9;&#9;&#9;c-2.452-0.577-4.913-1.185-6.927-2.783C281.735,340.638,279.597,342.746,281.112,343.949L281.112,343.949z"/>
	</g>
</g>











</svg>