<?xml version="1.0" encoding="utf-8"?>
<svg id="master-artboard" viewBox="0 0 68.53331756591797 126.00814819335938" version="1.1" xmlns="http://www.w3.org/2000/svg" x="0px" y="0px" style="enable-background:new 0 0 550 400;" width="68.53331756591797px" height="126.00814819335938px"><rect id="ee-background" x="0" y="0" width="68.53331756591797" height="126.00814819335938" style="fill: white; fill-opacity: 0; pointer-events: none;"/>





<g transform="matrix(1, 0, 0, 1, -234.70059609413147, -173.85757446289062)">
		<path class="st119" d="M251.3,179.2c8.7-5.4,19.8-6.4,29.3-2.9c-0.1,0-0.4,0.1-0.5,0.1c3.2,2.3,5.8,5.2,7.8,8.6&#10;&#9;&#9;&#9;c2.6,4.4,4.4,9.3,5.4,14.4c0.9,4.7,1.2,9.5,0.4,14.2c-0.6,3.7-2,7.2-3.7,10.4c-2,3.5-4.4,6.7-7.6,9.3c-5.3,4.6-12.3,7.4-19.4,7.2&#10;&#9;&#9;&#9;c-1.2,0.1-2.5-0.2-3.7,0.1c-2.8-0.7-5.4-2-7.9-3.5c-4.4-2.6-8.2-6.3-10.9-10.6c0.6,0.1,1,0.5,1.4,0.8c3,2.1,6.6,3.3,10.2,4.1&#10;&#9;&#9;&#9;c5.2,1.2,10.7,1.5,15.9,0.3c5-1.1,9.7-3.7,13-7.6c1.3-1.5,2.1-3.4,2.7-5.4c0.3-1.1,0.6-2.2,0.4-3.4c0.4-3.1,0.4-6.2-0.3-9.2&#10;&#9;&#9;&#9;c-0.4-1.5-0.8-3.1-1.8-4.3c-1.3-1.4-3.3-2.1-5.2-1.9c-0.9,0.1-1.8,0.5-2.7,0.8c-5.9,1.7-12,2.3-18.1,2.1&#10;&#9;&#9;&#9;c-4.7-0.2-9.4-0.9-13.8-2.5c-2-0.8-4.3-1.8-5.2-3.9C239.7,189.4,244.8,183.1,251.3,179.2L251.3,179.2z" style="fill: rgb(104, 125, 252); stroke: rgb(104, 125, 252); stroke-width: 0.09375; stroke-miterlimit: 10;"/>
		<path class="st120" d="M280.2,176.5c0.1,0,0.4-0.1,0.5-0.1c7.3,2.7,13.6,8,17.5,14.7c4.4,7.5,5.8,16.6,3.7,25&#10;&#9;&#9;&#9;c-2.4,10.1-9.7,18.9-19.2,23.1c-0.8,0.4-1.7,0.7-2.5,1c-1.3,0.5-2.7,0.8-4.1,1.2c-0.7,0.2-1.4,0.3-2.2,0.4&#10;&#9;&#9;&#9;c-4.5,0.7-9.1,0.4-13.5-0.6c-0.3-0.1-0.5-0.2-0.8-0.3c-0.1,0-0.3-0.1-0.4-0.2c1.2-0.3,2.5-0.1,3.7-0.1c7.1,0.2,14.1-2.6,19.4-7.2&#10;&#9;&#9;&#9;c3.1-2.5,5.5-5.8,7.6-9.3c1.8-3.2,3.1-6.8,3.7-10.4c0.8-4.7,0.5-9.5-0.4-14.2c-1-5.1-2.7-9.9-5.4-14.4&#10;&#9;&#9;&#9;C286,181.7,283.3,178.7,280.2,176.5L280.2,176.5z" style="fill: rgb(96, 102, 252); stroke: rgb(96, 102, 252); stroke-width: 0.09375; stroke-miterlimit: 10;"/>
		<path class="st39" d="M249,182.7c0.8-0.4,2-0.3,2.3,0.6c0.3,1.3-0.8,2.5-2,3c-0.8,0.3-2.1,0.2-2.3-0.8&#10;&#9;&#9;&#9;C246.9,184.2,247.9,183.1,249,182.7L249,182.7z" style="fill: rgb(255, 255, 255); stroke: rgb(255, 255, 255); stroke-width: 0.09375; stroke-miterlimit: 10;"/>
		<path class="st47" d="M237.1,196.5c0.9,2.1,3.2,3.1,5.2,3.9c4.4,1.6,9.1,2.3,13.8,2.5c6.1,0.2,12.2-0.4,18.1-2.1&#10;&#9;&#9;&#9;c0.9-0.2,1.7-0.6,2.7-0.8c1.9-0.2,3.8,0.6,5.2,1.9c1,1.2,1.4,2.8,1.8,4.3c0.7,3,0.7,6.1,0.3,9.2c-0.4,2.4-1.1,4.9-2.5,6.8&#10;&#9;&#9;&#9;c-1.7,2.2-3.9,4-6.3,5.4c-4.5,2.6-9.7,3.7-14.8,3.6c-4.1-0.1-8.1-0.8-12-2c-3.5-1.1-6.9-2.9-9.5-5.6c-0.2-0.2-0.4-0.5-0.5-0.8&#10;&#9;&#9;&#9;c0.1,0,0.2,0,0.2,0.1c2.7,2.6,6.1,4.2,9.6,5.3c4.4,1.4,9.1,2.3,13.7,2.2c5,0,10-1.4,14-4.3c2.8-2,5.4-4.6,6.5-8&#10;&#9;&#9;&#9;c1.1-3.3,1.1-7,0.4-10.4c-0.3-1.3-0.6-2.7-1.2-3.9c-1.9,3.4-5.1,5.9-8.5,7.7c-3.3,1.8-6.9,3.1-10.5,4.1c-0.1-1.2-0.3-2.6-1.2-3.6&#10;&#9;&#9;&#9;c-0.4-0.5-1.2-0.4-1.6,0.2c-0.9,1.3-1,2.9-1,4.5c-3.4,0.6-6.7,1.4-10.1,1.7c0.9-1.9,1-4.1,0.4-6.1c-0.3-0.7-0.7-1.7-1.6-1.6&#10;&#9;&#9;&#9;c-1,0.4-1.3,1.6-1.5,2.5c-0.3,1.8-0.2,3.9,0.8,5.5c-3.2,0.5-6.5,0.6-9.8,0.8C234.3,212.3,234.4,203.9,237.1,196.5L237.1,196.5z" style="stroke: rgb(0, 0, 0); stroke-width: 0.09375; stroke-miterlimit: 10;"/>
		<path class="st121" d="M273.3,211.8c3.4-1.8,6.6-4.3,8.5-7.7c0.6,1.2,1,2.6,1.2,3.9c0.7,3.4,0.6,7-0.4,10.4&#10;&#9;&#9;&#9;c-1.1,3.3-3.7,5.9-6.5,8c-4.1,2.9-9.1,4.3-14,4.3c-4.7,0.1-9.3-0.8-13.7-2.2c-3.5-1.2-7-2.7-9.6-5.3c-0.1,0-0.2-0.1-0.2-0.1l0,0&#10;&#9;&#9;&#9;c-0.5-1.1-1-2.2-1.4-3.3c3.3-0.2,6.6-0.3,9.8-0.8c0.1,0.1,0.1,0.2,0.2,0.2c0.5,0.5,1.3,0.3,1.7-0.3c0-0.1,0.1-0.2,0.2-0.2&#10;&#9;&#9;&#9;c3.4-0.3,6.8-1.1,10.1-1.7c0,0.3,0.1,0.6,0.1,1c0.2,0.8,0.4,1.8,1.1,2.4c0.5,0.4,1.2,0.2,1.5-0.3c0.8-1.2,1-2.6,1-4v-0.1&#10;&#9;&#9;&#9;C266.4,214.9,270,213.6,273.3,211.8L273.3,211.8z" style="fill: rgb(82, 94, 94); stroke: rgb(82, 94, 94); stroke-width: 0.09375; stroke-miterlimit: 10;"/>
		<path class="st76" d="M246.1,213.4c0.2-1,0.5-2.2,1.5-2.5c0.9-0.1,1.4,0.9,1.6,1.6c0.6,2,0.6,4.3-0.4,6.1&#10;&#9;&#9;&#9;c-0.1,0.1-0.1,0.2-0.2,0.2c-0.6-0.2-1.3-0.3-1.7,0.3c-0.1-0.1-0.1-0.2-0.2-0.2C245.8,217.2,245.8,215.2,246.1,213.4L246.1,213.4z" style="fill: rgb(151, 151, 151); stroke: rgb(151, 151, 151); stroke-width: 0.09375; stroke-miterlimit: 10;"/>
		<path class="st76" d="M260,212.5c0.4-0.5,1.2-0.7,1.6-0.2c0.9,1,1,2.3,1.2,3.6v0.1c-1.2,0.3-2.4,0.5-3.5,0.9&#10;&#9;&#9;&#9;c-0.2,0.3-0.1,0.7-0.1,1c0-0.3-0.1-0.7-0.1-1C259,215.4,259.1,213.7,260,212.5L260,212.5z" style="fill: rgb(151, 151, 151); stroke: rgb(151, 151, 151); stroke-width: 0.09375; stroke-miterlimit: 10;"/>
		<path class="st122" d="M281.6,222.4c1.5-2,2.1-4.4,2.5-6.8c0.1,1.2-0.2,2.3-0.4,3.4c-0.5,1.9-1.3,3.8-2.7,5.4&#10;&#9;&#9;&#9;c-3.3,3.9-8.1,6.4-13,7.6c-5.2,1.2-10.7,0.9-15.9-0.3c-3.6-0.8-7.2-2-10.2-4.1c-0.4-0.3-0.8-0.7-1.4-0.8l-0.1,0&#10;&#9;&#9;&#9;c-0.5-0.9-1.2-1.7-1.4-2.7c2.6,2.7,6,4.5,9.5,5.6c3.9,1.2,7.9,1.9,12,2c5.1,0,10.4-1,14.8-3.6&#10;&#9;&#9;&#9;C277.7,226.4,279.9,224.6,281.6,222.4L281.6,222.4z" style="fill: rgb(169, 181, 252); stroke: rgb(169, 181, 252); stroke-width: 0.09375; stroke-miterlimit: 10;"/>
		<path class="st123" d="M259.2,216.8c1.2-0.4,2.3-0.6,3.5-0.9c0,1.4-0.2,2.9-1,4c-0.3,0.5-1,0.7-1.5,0.3c-0.7-0.6-0.9-1.6-1.1-2.4&#10;&#9;&#9;&#9;C259.1,217.5,259,217.1,259.2,216.8L259.2,216.8z" style="fill: rgb(176, 189, 189); stroke: rgb(176, 189, 189); stroke-width: 0.09375; stroke-miterlimit: 10;"/>
		<path class="st124" d="M247,219.1c0.4-0.6,1.1-0.4,1.7-0.3C248.3,219.4,247.6,219.6,247,219.1L247,219.1z" style="fill: rgb(166, 177, 177); stroke: rgb(166, 177, 177); stroke-width: 0.09375; stroke-miterlimit: 10;"/>
		<path class="st125" d="M280.2,240.1c0.9-0.3,1.7-0.6,2.5-1c0.4,0.7,0.8,1.4,1.1,2.1c-0.8,0.5-1.5,1.1-2.4,1.4&#10;&#9;&#9;&#9;C281,241.8,280.6,241,280.2,240.1L280.2,240.1z" style="fill: rgb(151, 173, 252); stroke: rgb(151, 173, 252); stroke-width: 0.09375; stroke-miterlimit: 10;"/>
		<path class="st126" d="M276.1,241.3c1.4-0.3,2.7-0.7,4.1-1.2c0.4,0.8,0.8,1.7,1.2,2.5c0.9-0.3,1.7-0.8,2.4-1.4&#10;&#9;&#9;&#9;c2.2,4.3,4.2,8.6,6.3,12.9c0.3,0.6,0.6,1.2,0.8,1.8c0,0.7-0.4,1.4-0.8,1.9c-0.9,0.9-2,1.5-3.2,1.9c0.2-0.8,0.7-1.7,0.4-2.5&#10;&#9;&#9;&#9;c-0.5-2.2-1.5-4.3-2.3-6.4c-1.2-2.7-2.3-5.5-3.7-8.2c-1.4,0.4-2.8,0.8-4.3,0.8C276.7,242.8,276.4,242.1,276.1,241.3L276.1,241.3z" style="fill: rgb(172, 192, 251); stroke: rgb(172, 192, 251); stroke-width: 0.09375; stroke-miterlimit: 10;"/>
		<path class="st127" d="M259.7,240.8c0.3,0.1,0.5,0.2,0.8,0.3c1.2,0.9,2.7,1.3,4.2,1.6c3.4,0.7,6.8,0.9,10.2,1&#10;&#9;&#9;&#9;c0.2,2.3,0,4.6-0.5,6.9c-0.5,2.1-1.5,4.1-3,5.6c-2.1,1.8-5.1,2.4-7.8,2c0.9,0.6,1.8,1.3,2.7,1.9c0.7,0.4,0.9,1.3,1.1,2&#10;&#9;&#9;&#9;c0.6,3.1,0.4,6.2-0.4,9.3c-0.1,0-0.3,0-0.4,0.1c-1.1,0.1-2.1,0-3.1-0.1c-0.2,0-0.5-0.1-0.7-0.1c-0.4-0.1-0.7-0.2-1-0.3&#10;&#9;&#9;&#9;c-0.3-0.3-0.8-0.6-0.7-1c0.6-3.7,1.1-7.4,1.7-11.1c0.1-0.5,0.3-1.1-0.1-1.6c-0.4-0.7-0.7-1.5-1.1-2.2c0-2.5-0.1-5,0-7.5&#10;&#9;&#9;&#9;c0-1,0.3-1.9,0-2.9c-1.3,4.2-2.5,8.4-3.6,12.6c-0.2,0.8-1.1,1.3-1.9,1.6c-1-0.4-2-1-2.8-1.8c-0.4-0.6-0.9-1.4-0.6-2.1&#10;&#9;&#9;&#9;c1.8-3.9,3.8-7.8,5.7-11.7C258.8,242.4,259.2,241.6,259.7,240.8L259.7,240.8z" style="fill: rgb(209, 224, 253); stroke: rgb(209, 224, 253); stroke-width: 0.09375; stroke-miterlimit: 10;"/>
		<path class="st126" d="M260.5,241c4.4,1,9,1.3,13.5,0.6c0.2,0,0.5,0.1,0.7,0.1c0.1,0.6,0.2,1.2,0.4,1.9c0.6,0,1.2,0,1.8-0.1&#10;&#9;&#9;&#9;c0.1,0.2,0.2,0.3,0.4,0.5c0.8,3.3,1.6,6.6,1.7,10.1c-0.1,0.5,0.4,0.6,0.7,0.8c0.1,0,0.3-0.1,0.4-0.1c-0.2,0.7,0.1,1.4,0.2,2.1&#10;&#9;&#9;&#9;c1,4.8,2,9.6,3.1,14.4c0.3,0.9-0.8,1.3-1.3,1.7c-0.3,0.1-0.6,0.2-0.9,0.3l-0.2,0.1c0.2-2.8-0.4-5.5-0.8-8.3&#10;&#9;&#9;&#9;c-0.5-2.6-0.9-5.2-1.6-7.8c-0.3-0.8-0.4-1.7-1-2.4c-0.8-0.3-1.6,0-2.2,0.6c-1.2,1.2-2.3,2.6-2.9,4.2c-0.2,0.1-0.4,0.1-0.6,0.2&#10;&#9;&#9;&#9;c-0.6,0-1.2,0-1.8,0c-0.1,3.5,0,7-0.2,10.4c-0.4,0.2-0.8,0.4-1.2,0.5c-0.4,0.1-0.8,0.2-1.2,0.3c-0.1,0-0.3,0-0.4,0.1&#10;&#9;&#9;&#9;c0.7-3,1-6.2,0.4-9.3c-0.2-0.7-0.4-1.6-1.1-2c-0.9-0.6-1.8-1.3-2.7-1.9c2.7,0.4,5.7-0.3,7.8-2c1.6-1.5,2.5-3.5,3-5.6&#10;&#9;&#9;&#9;c0.6-2.2,0.7-4.6,0.5-6.9c-3.4-0.2-6.9-0.4-10.2-1C263.2,242.3,261.7,242,260.5,241L260.5,241z" style="fill: rgb(172, 192, 251); stroke: rgb(172, 192, 251); stroke-width: 0.09375; stroke-miterlimit: 10;"/>
		<path class="st125" d="M273.9,241.7c0.7-0.1,1.5-0.2,2.2-0.4c0.2,0.8,0.6,1.5,1,2.3c0.1,0.2,0.2,0.5,0.3,0.7l-0.2-0.2&#10;&#9;&#9;&#9;c-0.1-0.2-0.2-0.4-0.4-0.5c-0.6,0-1.2,0.1-1.8,0.1c-0.1-0.6-0.3-1.2-0.4-1.9C274.5,241.8,274.1,241.7,273.9,241.7L273.9,241.7z" style="fill: rgb(151, 173, 252); stroke: rgb(151, 173, 252); stroke-width: 0.09375; stroke-miterlimit: 10;"/>
		<path class="st127" d="M277.1,243.5c1.5,0,2.9-0.4,4.3-0.8c1.3,2.7,2.5,5.4,3.7,8.2c0.8,2.1,1.8,4.2,2.3,6.4&#10;&#9;&#9;&#9;c0.3,0.9-0.2,1.7-0.4,2.5c-0.5,0.1-0.9,0.3-1.4,0.4c-0.7,0.1-1.5,0-2.2,0l-0.1,0.2c-0.3-0.2-0.6-0.4-0.7-0.8&#10;&#9;&#9;&#9;c-0.9-2.4-1.5-4.9-2.4-7.3c-0.4-2.8-1.7-5.4-2.8-8C277.3,244,277.2,243.8,277.1,243.5L277.1,243.5z" style="fill: rgb(209, 224, 253); stroke: rgb(209, 224, 253); stroke-width: 0.09375; stroke-miterlimit: 10;"/>
		<path class="st128" d="M277.1,244.1l0.2,0.2c1.1,2.6,2.4,5.2,2.8,8c-0.1,0.9-0.2,1.8-0.3,2.6c-0.1,0-0.3,0.1-0.4,0.1&#10;&#9;&#9;&#9;c-0.3-0.2-0.8-0.4-0.7-0.8C278.7,250.7,277.9,247.4,277.1,244.1L277.1,244.1z" style="fill: rgb(138, 163, 251); stroke: rgb(138, 163, 251); stroke-width: 0.09375; stroke-miterlimit: 10;"/>
		<path class="st126" d="M261.5,244.6c0.3,0.9,0,1.9,0,2.9c-0.2,2.5,0,5,0,7.5c-0.4,1.2-0.8,2.4-1.2,3.7c-0.1,0.3-0.3,0.5-0.6,0.6&#10;&#9;&#9;&#9;c-1.2,0.1-2.4,0-3.5-0.4c0.7-0.3,1.6-0.7,1.9-1.6C259,253,260.2,248.8,261.5,244.6L261.5,244.6z" style="fill: rgb(172, 192, 251); stroke: rgb(172, 192, 251); stroke-width: 0.09375; stroke-miterlimit: 10;"/>
		<path class="st127" d="M275.2,255.7c0.6-0.6,1.4-0.9,2.2-0.6c0.6,0.6,0.7,1.6,1,2.4c0.7,2.5,1.1,5.2,1.6,7.8&#10;&#9;&#9;&#9;c0.4,2.7,1,5.5,0.8,8.3c-0.2,0.1-0.5,0.1-0.7,0.2c-1,0.2-2,0.2-3.1,0.2c-0.3,0-0.6,0-0.9-0.1c-0.4-0.1-0.7-0.1-1-0.2&#10;&#9;&#9;&#9;c-0.8-0.2-1.9-0.6-1.9-1.6c-0.3-4-0.6-7.9-0.8-11.9c-0.2,0-0.5-0.1-0.6-0.1c0.2-0.1,0.4-0.1,0.6-0.2&#10;&#9;&#9;&#9;C272.9,258.2,274.1,256.9,275.2,255.7L275.2,255.7z" style="fill: rgb(209, 224, 253); stroke: rgb(209, 224, 253); stroke-width: 0.09375; stroke-miterlimit: 10;"/>
		<path class="st129" d="M253.3,257c0.8,0.8,1.7,1.4,2.8,1.8c1.1,0.4,2.3,0.5,3.5,0.4c-0.3,1.4-0.6,2.8-0.9,4.3&#10;&#9;&#9;&#9;c-0.4,0-0.7,0.1-1.1,0.2c-0.2,0-0.5,0-0.6,0c0-0.6,0-1.2-0.1-1.8c-0.2-0.1-0.4-0.2-0.6-0.2l-0.2-0.1c-0.6,0.9-1.1,1.9-1.7,2.8&#10;&#9;&#9;&#9;c-0.7,0-1.4,0-2,0c0,0,0.1-0.2,0.1-0.2c1-1.6,1.8-3.4,2.7-5.1c-0.7-0.5-1.3-1-2-1.6C253.2,257.3,253.3,257.1,253.3,257L253.3,257z&#10;&#9;&#9;&#9;" style="fill: rgb(97, 91, 251); stroke: rgb(97, 91, 251); stroke-width: 0.09375; stroke-miterlimit: 10;"/>
		<path class="st130" d="M251.7,260.2c0.5-1,0.9-1.9,1.4-2.9c0.6,0.5,1.3,1,2,1.6c-0.9,1.7-1.7,3.5-2.7,5.1&#10;&#9;&#9;&#9;c-0.4-0.9-0.6-1.9-0.9-2.9C251.3,260.8,251.6,260.5,251.7,260.2L251.7,260.2z" style="fill: rgb(115, 135, 251); stroke: rgb(115, 135, 251); stroke-width: 0.09375; stroke-miterlimit: 10;"/>
		<path class="st129" d="M286.9,259.8c1.2-0.4,2.3-1,3.2-1.9c0.7,1.4,1.4,2.8,2,4.3c-0.3,1.2-0.7,2.4-1.1,3.6&#10;&#9;&#9;&#9;c-1.3-1.8-2.3-3.7-3.6-5.6c-1.2,0.2-2.5,0.5-3.7,0.3c0.6-0.1,1.2-0.2,1.8-0.3C286,260.1,286.5,259.9,286.9,259.8L286.9,259.8z" style="fill: rgb(97, 91, 251); stroke: rgb(97, 91, 251); stroke-width: 0.09375; stroke-miterlimit: 10;"/>
		<path class="st130" d="M283.3,260.1c0.7,0,1.5,0.1,2.2,0c-0.6,0.1-1.2,0.2-1.8,0.3c1.3,0.2,2.5,0,3.7-0.3c1.2,1.9,2.3,3.8,3.6,5.6&#10;&#9;&#9;&#9;c-0.5,0.2-1,0.4-1.5,0.6c-0.5-0.8-1.1-1.6-1.6-2.5c-0.2-0.4-0.4-0.8-0.9-0.9c-0.1,0.4-0.1,0.9-0.1,1.3c0-0.4-0.1-0.8-0.1-1.2&#10;&#9;&#9;&#9;c-0.3,0-0.6,0-0.8,0c0,0.6,0.1,1.3,0.3,1.9l0,0.1c-0.7,0-1.4-0.2-2.1-0.3c-0.4-1.5-0.6-2.9-1-4.4L283.3,260.1L283.3,260.1z" style="fill: rgb(115, 135, 251); stroke: rgb(115, 135, 251); stroke-width: 0.09375; stroke-miterlimit: 10;"/>
		<path class="st131" d="M256.2,261.5c0.2,0,0.4,0.1,0.6,0.2c0,0.6,0,1.2,0.1,1.8c0.2,0,0.5,0,0.6,0c-0.2,0-0.4,0.1-0.6,0.2&#10;&#9;&#9;&#9;c-0.3-0.3-0.7-0.6-1-0.9C256,262.4,256.1,262,256.2,261.5L256.2,261.5z" style="fill: rgb(115, 135, 250); stroke: rgb(115, 135, 250); stroke-width: 0.09375; stroke-miterlimit: 10;"/>
		<path class="st132" d="M286,263.1c0.3,0,0.6,0,0.8,0c0,0.4,0.1,0.8,0.1,1.2c-0.2,0.2-0.4,0.4-0.7,0.6&#10;&#9;&#9;&#9;C286.1,264.3,286,263.7,286,263.1L286,263.1z" style="fill: rgb(96, 91, 250); stroke: rgb(96, 91, 250); stroke-width: 0.09375; stroke-miterlimit: 10;"/>
		<path class="st133" d="M261.6,270.9c0.3,0.1,0.7,0.2,1,0.3c-0.2,1.8,0.5,3.7,2,4.7c1.4-1.1,2.5-2.8,2.7-4.6&#10;&#9;&#9;&#9;c0.4-0.1,0.8-0.2,1.2-0.3c0,2.8-1.7,5.3-3.8,7.1c-0.2,0.2-0.6-0.1-0.8-0.2C262,276.2,261.2,273.5,261.6,270.9L261.6,270.9z" style="fill: rgb(219, 255, 254); stroke: rgb(219, 255, 254); stroke-width: 0.09375; stroke-miterlimit: 10;"/>
		<path class="st134" d="M262.6,271.2c0.2,0,0.5,0.1,0.7,0.1c0.2,1,0.5,1.9,1.3,2.6c0.9-0.6,1.4-1.5,1.8-2.5c0.1,0,0.3,0,0.4-0.1&#10;&#9;&#9;&#9;c0.1,0,0.3,0,0.4-0.1c-0.2,1.8-1.3,3.5-2.7,4.6C263.2,274.9,262.4,273,262.6,271.2L262.6,271.2z" style="fill: rgb(164, 247, 254); stroke: rgb(164, 247, 254); stroke-width: 0.09375; stroke-miterlimit: 10;"/>
		<path class="st135" d="M263.4,271.4c1,0.2,2.1,0.2,3.1,0.1c-0.4,1-0.9,1.9-1.8,2.5C263.9,273.3,263.6,272.3,263.4,271.4&#10;&#9;&#9;&#9;L263.4,271.4z" style="fill: rgb(126, 224, 254); stroke: rgb(126, 224, 254); stroke-width: 0.09375; stroke-miterlimit: 10;"/>
		<path class="st136" d="M281,273.4c0.3-0.1,0.6-0.2,0.9-0.3c0.6,1.2,0.2,2.7-0.1,4c-0.4,1.5-1.1,2.9-2.1,4.1&#10;&#9;&#9;&#9;c-3.1-1.1-4.5-4.5-4.6-7.5c0.3,0.1,0.7,0.1,1,0.2c0.2,2,1.1,4.2,3.2,5C280.7,277.4,281.2,275.4,281,273.4L281,273.4z" style="fill: rgb(220, 255, 255); stroke: rgb(220, 255, 255); stroke-width: 0.09375; stroke-miterlimit: 10;"/>
		<path class="st134" d="M280.1,273.7c0.2-0.1,0.5-0.1,0.7-0.2l0.2-0.1c0.2,1.9-0.4,4-1.7,5.4c-2-0.8-3-3-3.2-5c0.3,0,0.6,0,0.9,0.1&#10;&#9;&#9;&#9;c0.1,1.3,0.8,2.5,2,3.1C279.7,276,280.2,274.9,280.1,273.7L280.1,273.7z" style="fill: rgb(164, 247, 254); stroke: rgb(164, 247, 254); stroke-width: 0.09375; stroke-miterlimit: 10;"/>
		<path class="st137" d="M277,273.9c1,0,2.1,0,3.1-0.2c0.2,1.2-0.4,2.3-1,3.3C277.8,276.4,277.1,275.2,277,273.9L277,273.9z" style="fill: rgb(126, 224, 253); stroke: rgb(126, 224, 253); stroke-width: 0.09375; stroke-miterlimit: 10;"/>
		<path class="st138" d="M269.6,288.6c4.8-0.2,9.7,0,14.5,0.7c2.8,0.4,5.7,0.9,8.3,2c1,0.5,2.3,1,2.7,2.1c0.3,0.8-0.2,1.5-0.8,2&#10;&#9;&#9;&#9;c-1.4,1.1-3.2,1.6-4.9,2.1c-4.6,1.2-9.3,1.6-14,1.7c-5.2,0.1-10.5-0.1-15.7-1c-2.3-0.4-4.6-0.9-6.8-1.9c-0.9-0.4-1.9-1-2.3-1.9&#10;&#9;&#9;&#9;c-0.4-0.7,0.1-1.6,0.7-2c1.5-1.2,3.5-1.7,5.3-2.2C260.9,289.2,265.3,288.8,269.6,288.6L269.6,288.6z" style="fill: rgb(207, 255, 255); stroke: rgb(207, 255, 255); stroke-width: 0.09375; stroke-miterlimit: 10;"/>
		<path class="st139" d="M269.9,290.8c2.6-0.1,5.3-0.1,7.9,0.2c2.4,0.2,4.8,0.6,7,1.6c0.6,0.3,1.3,0.7,1.2,1.5c0,0.5-0.6,0.8-0.9,1&#10;&#9;&#9;&#9;c-1.7,0.9-3.6,1.2-5.5,1.5c-3.1,0.5-6.3,0.4-9.5,0.4c-2.7-0.2-5.4-0.4-7.9-1.3c-0.8-0.3-1.8-0.7-2.2-1.5c-0.2-1,0.9-1.5,1.6-1.8&#10;&#9;&#9;&#9;C264.2,291.3,267,291.1,269.9,290.8L269.9,290.8z" style="fill: rgb(153, 255, 255); stroke: rgb(153, 255, 255); stroke-width: 0.09375; stroke-miterlimit: 10;"/>
	</g>

</svg>