<?xml version="1.0" encoding="utf-8"?>
<svg id="master-artboard" viewBox="0 0 277.8769226074219 268.8299560546875" version="1.1" xmlns="http://www.w3.org/2000/svg" x="0px" y="0px" style="enable-background:new 0 0 1400 980;" width="277.8769226074219px" height="268.8299560546875px"><rect id="ee-background" x="0" y="0" width="277.8769226074219" height="268.8299560546875" style="fill: white; fill-opacity: 0; pointer-events: none;"/>

<path class="st22" d="M493.4,769.2c-33.4,0-59.6,18.4-50.7,51.6c9,33.2,17.3,49.6,50.7,49.6c33.4,0,58.7-34.6,58.7-62.5&#10;&#9;&#9;&#9;S526.8,769.2,493.4,769.2z" style="fill-rule: evenodd; clip-rule: evenodd; fill: rgb(168, 8, 10);" transform="matrix(1, 0, 0, 1, -354.3546462059021, -671.7973022460938)"/><path class="st23" d="M495.6,797.1c13.2,0,24-3.7,24-8.2c0-4.5-10.8-8.2-24-8.2c-13.2,0-24,3.7-24,8.2&#10;&#9;&#9;&#9;C471.6,793.4,482.4,797.1,495.6,797.1z" style="fill-rule: evenodd; clip-rule: evenodd; fill: rgb(146, 0, 2);" transform="matrix(1, 0, 0, 1, -354.3546462059021, -671.7973022460938)"/><path class="st24" d="M568.5,833.4c-33.4,0-59.6,18.4-50.7,51.6c9,33.2,17.3,49.6,50.7,49.6c33.4,0,58.7-34.6,58.7-62.5&#10;&#9;&#9;&#9;C627.2,844.1,601.8,833.4,568.5,833.4z" style="fill-rule: evenodd; clip-rule: evenodd; fill: rgb(210, 33, 0);" transform="matrix(1, 0, 0, 1, -354.3546462059021, -671.7973022460938)"/><path class="st24" d="M439.6,833c-33.4,0-59.6,18.4-50.7,51.6c9,33.2,17.3,49.6,50.7,49.6c33.4,0,58.7-34.6,58.7-62.5&#10;&#9;&#9;&#9;C498.3,843.7,472.9,833,439.6,833z" style="fill-rule: evenodd; clip-rule: evenodd; fill: rgb(210, 33, 0);" transform="matrix(1, 0, 0, 1, -354.3546462059021, -671.7973022460938)"/><path class="st23" d="M570.6,861.3c13.2,0,24-3.7,24-8.2c0-4.5-10.8-8.2-24-8.2c-13.2,0-24,3.7-24,8.2&#10;&#9;&#9;&#9;C546.7,857.6,557.4,861.3,570.6,861.3z" style="fill-rule: evenodd; clip-rule: evenodd; fill: rgb(146, 0, 2);" transform="matrix(1, 0, 0, 1, -354.3546462059021, -671.7973022460938)"/><path class="st23" d="M441.8,860.9c13.2,0,24-3.7,24-8.2s-10.8-8.2-24-8.2c-13.2,0-24,3.7-24,8.2S428.6,860.9,441.8,860.9z" style="fill-rule: evenodd; clip-rule: evenodd; fill: rgb(146, 0, 2);" transform="matrix(1, 0, 0, 1, -354.3546462059021, -671.7973022460938)"/><path class="st11" d="M569.6,822.1l13.1,26.2c-7.1,4.7-16.4,13.1-23.5,3.1c2.5-10.7,6.3-17,2.4-28.9c-4.6-36-37-97.4-63.1-109.1&#10;&#9;&#9;&#9;c-3.2,26.8-6.1,48.9-1.7,77.5l-5,0.1l-1.4-74.6c-12.6,6.8,1.2-2.6-7.4,5.1c-2.6,2.3-3.8,3.6-6.6,7.8L453,777.8&#10;&#9;&#9;&#9;c-5.6,15.8-13.4,43.9-7.4,61.4c5.8,16.8-2.2-5.6,4.9,8.6l1.9,6.6c-10.2,4.9-9.1,3.6-22.4,3.4c4.4-20.3,6.9-2.2,7.7-28.1&#10;&#9;&#9;&#9;c12.5-96.9,34-88.5,51.7-135.8c-33.4,11.7-19.7,54.8-78.5,115.9c-31.8,33-15.3,21.3-27.7,38.2c-65.4-134.2,53.2-142.3,94.6-155.2&#10;&#9;&#9;&#9;c23.5-7.3,9-16.6,30.9-15.5c8.5,21.4-8.3,14.2,6.4,37.2C569.8,800.3,533.6,742,569.6,822.1z" style="fill-rule: evenodd; clip-rule: evenodd; fill: rgb(87, 142, 11);" transform="matrix(1, 0, 0, 1, -354.3546462059021, -671.7973022460938)"/><path class="st14" d="M489.4,693.9c0,0-53.3,13.4-81,68.9c-27.7,55.5-25.2,85.3-25.2,85.3S281.4,683.4,489.4,693.9z" style="fill-rule: evenodd; clip-rule: evenodd; fill: rgb(134, 170, 0);" transform="matrix(1, 0, 0, 1, -354.3546462059021, -671.7973022460938)"/>
</svg>