<?xml version="1.0" encoding="utf-8"?>
<svg id="master-artboard" viewBox="0 0 350.2039794921875 331.01947021484375" version="1.0" xmlns="http://www.w3.org/2000/svg" x="0px" y="0px" width="350.2039794921875px" height="331.01947021484375px" enable-background="new 0 0 1096 780"><rect id="ee-background" x="0" y="0" width="350.2039794921875" height="331.01947021484375" style="fill: white; fill-opacity: 0; pointer-events: none;"/>
<path d="M 255.899994 440.600006 H 277.399994 V 462.100006 H 255.899994 V 440.600006 Z" fill="#00BDE5" stroke="#FFFFFF" stroke-width="1.6235" stroke-miterlimit="10" transform="matrix(1, 0, 0, 1, -15.967925310134888, -413.28750228881836)"/><path d="M 277.399994 440.600006 H 298.899994 V 462.100006 H 277.399994 V 440.600006 Z" fill="#61E41C" stroke="#FFFFFF" stroke-width="1.6235" stroke-miterlimit="10" transform="matrix(1, 0, 0, 1, -15.967925310134888, -413.28750228881836)"/><path d="M 298.899994 462.100006 H 320.399994 V 483.600006 H 298.899994 V 462.100006 Z" fill="#61E41C" stroke="#FFFFFF" stroke-width="1.6235" stroke-miterlimit="10" transform="matrix(1, 0, 0, 1, -15.967925310134888, -413.28750228881836)"/><path d="M 234.399994 440.600006 H 255.899994 V 462.100006 H 234.399994 V 440.600006 Z" fill="#00BDE5" stroke="#FFFFFF" stroke-width="1.6235" stroke-miterlimit="10" transform="matrix(1, 0, 0, 1, -15.967925310134888, -413.28750228881836)"/><path d="M 212.800003 462.100006 H 234.300003 V 483.600006 H 212.800003 V 462.100006 Z" fill="#00BDE5" stroke="#FFFFFF" stroke-width="1.6235" stroke-miterlimit="10" transform="matrix(1, 0, 0, 1, -15.967925310134888, -413.28750228881836)"/><path d="M 191.300003 483.600006 H 212.800003 V 505.100006 H 191.300003 V 483.600006 Z" fill="#00BDE5" stroke="#FFFFFF" stroke-width="1.6235" stroke-miterlimit="10" transform="matrix(1, 0, 0, 1, -15.967925310134888, -413.28750228881836)"/><path d="M 169.800003 483.600006 H 191.300003 V 505.100006 H 169.800003 V 483.600006 Z" fill="#00BDE5" stroke="#FFFFFF" stroke-width="1.6235" stroke-miterlimit="10" transform="matrix(1, 0, 0, 1, -15.967925310134888, -413.28750228881836)"/><path d="M 105.300003 440.600006 H 126.800003 V 462.100006 H 105.300003 V 440.600006 Z" transform="matrix(-1, 1.346237149535412e-10, -1.346237149535412e-10, -1, 216.125586271286, 489.40207290649414)" fill="#FB1B8D" stroke="#FFFFFF" stroke-width="1.6235" stroke-miterlimit="10"/><path d="M 83.800003 440.600006 H 105.300003 V 462.100006 H 83.800003 V 440.600006 Z" transform="matrix(-1, 1.347085915037738e-10, -1.347085915037738e-10, -1, 173.10448336601257, 489.40207290649414)" fill="#FB1B8D" stroke="#FFFFFF" stroke-width="1.6235" stroke-miterlimit="10"/><path d="M 62.299999 462.100006 H 83.799999 V 483.600006 H 62.299999 V 462.100006 Z" transform="matrix(-1, 1.347085915037738e-10, -1.347085915037738e-10, -1, 130.08348727226257, 532.4230690002441)" fill="#FB1B8D" stroke="#FFFFFF" stroke-width="1.6235" stroke-miterlimit="10"/><path d="M 126.800003 440.600006 H 148.300003 V 462.100006 H 126.800003 V 440.600006 Z" transform="matrix(-1, 1.347085915037738e-10, -1.347085915037738e-10, -1, 259.14656710624695, 489.40207290649414)" fill="#FB1B8D" stroke="#FFFFFF" stroke-width="1.6235" stroke-miterlimit="10"/><path d="M 148.300003 462.100006 H 169.800003 V 483.600006 H 148.300003 V 462.100006 Z" transform="matrix(-1, 1.348773037701534e-10, -1.348773037701534e-10, -1, 302.1676547527313, 532.4230690002441)" fill="#AD6ED7" stroke="#FFFFFF" stroke-width="1.6235" stroke-miterlimit="10"/><path d="M 255.899994 462.100006 H 277.399994 V 483.600006 H 255.899994 V 462.100006 Z" fill="#61E41C" stroke="#FFFFFF" stroke-width="1.6235" stroke-miterlimit="10" transform="matrix(1, 0, 0, 1, -15.967925310134888, -413.28750228881836)"/><path d="M 277.399994 462.100006 H 298.899994 V 483.600006 H 277.399994 V 462.100006 Z" fill="#61E41C" stroke="#FFFFFF" stroke-width="1.6235" stroke-miterlimit="10" transform="matrix(1, 0, 0, 1, -15.967925310134888, -413.28750228881836)"/><path d="M 298.899994 483.600006 H 320.399994 V 505.100006 H 298.899994 V 483.600006 Z" fill="#F7DD00" stroke="#FFFFFF" stroke-width="1.6235" stroke-miterlimit="10" transform="matrix(1, 0, 0, 1, -15.967925310134888, -413.28750228881836)"/><path d="M 234.399994 462.100006 H 255.899994 V 483.600006 H 234.399994 V 462.100006 Z" fill="#00BDE5" stroke="#FFFFFF" stroke-width="1.6235" stroke-miterlimit="10" transform="matrix(1, 0, 0, 1, -15.967925310134888, -413.28750228881836)"/><path d="M 212.800003 483.600006 H 234.300003 V 505.100006 H 212.800003 V 483.600006 Z" fill="#00BDE5" stroke="#FFFFFF" stroke-width="1.6235" stroke-miterlimit="10" transform="matrix(1, 0, 0, 1, -15.967925310134888, -413.28750228881836)"/><path d="M 191.300003 505.100006 H 212.800003 V 526.600006 H 191.300003 V 505.100006 Z" fill="#00BDE5" stroke="#FFFFFF" stroke-width="1.6235" stroke-miterlimit="10" transform="matrix(1, 0, 0, 1, -15.967925310134888, -413.28750228881836)"/><path d="M 169.800003 505.100006 H 191.300003 V 526.600006 H 169.800003 V 505.100006 Z" fill="#00BDE5" stroke="#FFFFFF" stroke-width="1.6235" stroke-miterlimit="10" transform="matrix(1, 0, 0, 1, -15.967925310134888, -413.28750228881836)"/><path d="M 105.300003 462.100006 H 126.800003 V 483.600006 H 105.300003 V 462.100006 Z" transform="matrix(-1, 1.346237149535412e-10, -1.346237149535412e-10, -1, 216.125586271286, 532.4230690002441)" fill="#FB1B8D" stroke="#FFFFFF" stroke-width="1.6235" stroke-miterlimit="10"/><path d="M 83.800003 462.100006 H 105.300003 V 483.600006 H 83.800003 V 462.100006 Z" transform="matrix(-1, 1.347085915037738e-10, -1.347085915037738e-10, -1, 173.10448336601257, 532.4230690002441)" fill="#FB1B8D" stroke="#FFFFFF" stroke-width="1.6235" stroke-miterlimit="10"/><path d="M 62.299999 483.600006 H 83.799999 V 505.100006 H 62.299999 V 483.600006 Z" transform="matrix(-1, 1.347085915037738e-10, -1.347085915037738e-10, -1, 130.08348727226257, 575.4441261291504)" fill="#FB1B8D" stroke="#FFFFFF" stroke-width="1.6235" stroke-miterlimit="10"/><path d="M 126.800003 462.100006 H 148.300003 V 483.600006 H 126.800003 V 462.100006 Z" transform="matrix(-1, 1.347085915037738e-10, -1.347085915037738e-10, -1, 259.14656710624695, 532.4230690002441)" fill="#AD6ED7" stroke="#FFFFFF" stroke-width="1.6235" stroke-miterlimit="10"/><path d="M 148.300003 483.600006 H 169.800003 V 505.100006 H 148.300003 V 483.600006 Z" transform="matrix(-1, 1.346237149535412e-10, -1.346237149535412e-10, -1, 302.1676547527313, 575.4441261291504)" fill="#AD6ED7" stroke="#FFFFFF" stroke-width="1.6235" stroke-miterlimit="10"/><path d="M 255.899994 483.600006 H 277.399994 V 505.100006 H 255.899994 V 483.600006 Z" fill="#61E41C" stroke="#FFFFFF" stroke-width="1.6235" stroke-miterlimit="10" transform="matrix(1, 0, 0, 1, -15.967925310134888, -413.28750228881836)"/><path d="M 277.399994 483.600006 H 298.899994 V 505.100006 H 277.399994 V 483.600006 Z" fill="#61E41C" stroke="#FFFFFF" stroke-width="1.6235" stroke-miterlimit="10" transform="matrix(1, 0, 0, 1, -15.967925310134888, -413.28750228881836)"/><path d="M 298.899994 505.100006 H 320.399994 V 526.600006 H 298.899994 V 505.100006 Z" fill="#F7DD00" stroke="#FFFFFF" stroke-width="1.6235" stroke-miterlimit="10" transform="matrix(1, 0, 0, 1, -15.967925310134888, -413.28750228881836)"/><path d="M 234.399994 483.600006 H 255.899994 V 505.100006 H 234.399994 V 483.600006 Z" fill="#61E41C" stroke="#FFFFFF" stroke-width="1.6235" stroke-miterlimit="10" transform="matrix(1, 0, 0, 1, -15.967925310134888, -413.28750228881836)"/><path d="M 212.800003 505.100006 H 234.300003 V 526.600006 H 212.800003 V 505.100006 Z" fill="#61E41C" stroke="#FFFFFF" stroke-width="1.6235" stroke-miterlimit="10" transform="matrix(1, 0, 0, 1, -15.967925310134888, -413.28750228881836)"/><path d="M 191.300003 526.599976 H 212.800003 V 548.099976 H 191.300003 V 526.599976 Z" fill="#61E41C" stroke="#FFFFFF" stroke-width="1.6235" stroke-miterlimit="10" transform="matrix(1, 0, 0, 1, -15.967925310134888, -413.28750228881836)"/><path d="M 169.800003 526.599976 H 191.300003 V 548.099976 H 169.800003 V 526.599976 Z" fill="#61E41C" stroke="#FFFFFF" stroke-width="1.6235" stroke-miterlimit="10" transform="matrix(1, 0, 0, 1, -15.967925310134888, -413.28750228881836)"/><path d="M 105.300003 483.600006 H 126.800003 V 505.100006 H 105.300003 V 483.600006 Z" transform="matrix(-1, 1.346237149535412e-10, -1.346237149535412e-10, -1, 216.125586271286, 575.4441261291504)" fill="#F5E6E1" stroke="#FFFFFF" stroke-width="1.6235" stroke-miterlimit="10"/><path d="M 83.800003 483.600006 H 105.300003 V 505.100006 H 83.800003 V 483.600006 Z" transform="matrix(-1, 1.347085915037738e-10, -1.347085915037738e-10, -1, 173.10448336601257, 575.4441261291504)" fill="#FB1B8D" stroke="#FFFFFF" stroke-width="1.6235" stroke-miterlimit="10"/><path d="M 62.299999 505.100006 H 83.799999 V 526.600006 H 62.299999 V 505.100006 Z" transform="matrix(-1, 1.347085915037738e-10, -1.347085915037738e-10, -1, 130.08348727226257, 618.4651832580566)" fill="#FB1B8D" stroke="#FFFFFF" stroke-width="1.6235" stroke-miterlimit="10"/><path d="M 126.800003 483.600006 H 148.300003 V 505.100006 H 126.800003 V 483.600006 Z" transform="matrix(-1, 1.347085915037738e-10, -1.347085915037738e-10, -1, 259.14656710624695, 575.4441261291504)" fill="#AD6ED7" stroke="#FFFFFF" stroke-width="1.6235" stroke-miterlimit="10"/><path d="M 148.300003 505.100006 H 169.800003 V 526.600006 H 148.300003 V 505.100006 Z" transform="matrix(-1, 1.348773037701534e-10, -1.348773037701534e-10, -1, 302.1676547527313, 618.4651832580566)" fill="#00BDE5" stroke="#FFFFFF" stroke-width="1.6235" stroke-miterlimit="10"/><path d="M 255.899994 505.100006 H 277.399994 V 526.600006 H 255.899994 V 505.100006 Z" fill="#61E41C" stroke="#FFFFFF" stroke-width="1.6235" stroke-miterlimit="10" transform="matrix(1, 0, 0, 1, -15.967925310134888, -413.28750228881836)"/><path d="M 277.399994 505.100006 H 298.899994 V 526.600006 H 277.399994 V 505.100006 Z" fill="#F7DD00" stroke="#FFFFFF" stroke-width="1.6235" stroke-miterlimit="10" transform="matrix(1, 0, 0, 1, -15.967925310134888, -413.28750228881836)"/><path d="M 298.899994 526.599976 H 320.399994 V 548.099976 H 298.899994 V 526.599976 Z" fill="#F7DD00" stroke="#FFFFFF" stroke-width="1.6235" stroke-miterlimit="10" transform="matrix(1, 0, 0, 1, -15.967925310134888, -413.28750228881836)"/><path d="M 234.399994 505.100006 H 255.899994 V 526.600006 H 234.399994 V 505.100006 Z" fill="#61E41C" stroke="#FFFFFF" stroke-width="1.6235" stroke-miterlimit="10" transform="matrix(1, 0, 0, 1, -15.967925310134888, -413.28750228881836)"/><path d="M 212.800003 526.599976 H 234.300003 V 548.099976 H 212.800003 V 526.599976 Z" fill="#61E41C" stroke="#FFFFFF" stroke-width="1.6235" stroke-miterlimit="10" transform="matrix(1, 0, 0, 1, -15.967925310134888, -413.28750228881836)"/><path d="M 191.300003 548.099976 H 212.800003 V 569.599976 H 191.300003 V 548.099976 Z" fill="#61E41C" stroke="#FFFFFF" stroke-width="1.6235" stroke-miterlimit="10" transform="matrix(1, 0, 0, 1, -15.967925310134888, -413.28750228881836)"/><path d="M 169.800003 548.099976 H 191.300003 V 569.599976 H 169.800003 V 548.099976 Z" fill="#61E41C" stroke="#FFFFFF" stroke-width="1.6235" stroke-miterlimit="10" transform="matrix(1, 0, 0, 1, -15.967925310134888, -413.28750228881836)"/><path d="M 105.300003 505.100006 H 126.800003 V 526.600006 H 105.300003 V 505.100006 Z" transform="matrix(-1, 1.348773037701534e-10, -1.348773037701534e-10, -1, 216.125586271286, 618.4651832580566)" fill="#F5E6E1" stroke="#FFFFFF" stroke-width="1.6235" stroke-miterlimit="10"/><path d="M 83.800003 505.100006 H 105.300003 V 526.600006 H 83.800003 V 505.100006 Z" transform="matrix(-1, 1.3445450308680051e-10, -1.3445450308680051e-10, -1, 173.10448336601257, 618.4651832580566)" fill="#F5E6E1" stroke="#FFFFFF" stroke-width="1.6235" stroke-miterlimit="10"/><path d="M 62.299999 526.599976 H 83.799999 V 548.099976 H 62.299999 V 526.599976 Z" transform="matrix(-1, 1.346237149535412e-10, -1.346237149535412e-10, -1, 130.08348727226257, 661.4861793518066)" fill="#AD6ED7" stroke="#FFFFFF" stroke-width="1.6235" stroke-miterlimit="10"/><path d="M 126.800003 505.100006 H 148.300003 V 526.600006 H 126.800003 V 505.100006 Z" transform="matrix(-1, 1.348773037701534e-10, -1.348773037701534e-10, -1, 259.14656710624695, 618.4651832580566)" fill="#F5E6E1" stroke="#FFFFFF" stroke-width="1.6235" stroke-miterlimit="10"/><path d="M 148.300003 526.599976 H 169.800003 V 548.099976 H 148.300003 V 526.599976 Z" transform="matrix(-1, 1.346237149535412e-10, -1.346237149535412e-10, -1, 302.1676547527313, 661.4861793518066)" fill="#00BDE5" stroke="#FFFFFF" stroke-width="1.6235" stroke-miterlimit="10"/><path d="M 255.899994 526.599976 H 277.399994 V 548.099976 H 255.899994 V 526.599976 Z" fill="#F7DD00" stroke="#FFFFFF" stroke-width="1.6235" stroke-miterlimit="10" transform="matrix(1, 0, 0, 1, -15.967925310134888, -413.28750228881836)"/><path d="M 277.399994 526.599976 H 298.899994 V 548.099976 H 277.399994 V 526.599976 Z" fill="#F7DD00" stroke="#FFFFFF" stroke-width="1.6235" stroke-miterlimit="10" transform="matrix(1, 0, 0, 1, -15.967925310134888, -413.28750228881836)"/><path d="M 298.899994 548.099976 H 320.399994 V 569.599976 H 298.899994 V 548.099976 Z" fill="#FC7406" stroke="#FFFFFF" stroke-width="1.6235" stroke-miterlimit="10" transform="matrix(1, 0, 0, 1, -15.967925310134888, -413.28750228881836)"/><path d="M 320.399994 483.600006 H 341.899994 V 505.100006 H 320.399994 V 483.600006 Z" fill="#F7DD00" stroke="#FFFFFF" stroke-width="1.6235" stroke-miterlimit="10" transform="matrix(1, 0, 0, 1, -15.967925310134888, -413.28750228881836)"/><path d="M 320.399994 505.100006 H 341.899994 V 526.600006 H 320.399994 V 505.100006 Z" fill="#F7DD00" stroke="#FFFFFF" stroke-width="1.6235" stroke-miterlimit="10" transform="matrix(1, 0, 0, 1, -15.967925310134888, -413.28750228881836)"/><path d="M 320.399994 526.599976 H 341.899994 V 548.099976 H 320.399994 V 526.599976 Z" fill="#FC7406" stroke="#FFFFFF" stroke-width="1.6235" stroke-miterlimit="10" transform="matrix(1, 0, 0, 1, -15.967925310134888, -413.28750228881836)"/><path d="M 320.399994 548.099976 H 341.899994 V 569.599976 H 320.399994 V 548.099976 Z" fill="#FC7406" stroke="#FFFFFF" stroke-width="1.6235" stroke-miterlimit="10" transform="matrix(1, 0, 0, 1, -15.967925310134888, -413.28750228881836)"/><path d="M 234.399994 526.599976 H 255.899994 V 548.099976 H 234.399994 V 526.599976 Z" fill="#61E41C" stroke="#FFFFFF" stroke-width="1.6235" stroke-miterlimit="10" transform="matrix(1, 0, 0, 1, -15.967925310134888, -413.28750228881836)"/><path d="M 212.800003 548.099976 H 234.300003 V 569.599976 H 212.800003 V 548.099976 Z" fill="#61E41C" stroke="#FFFFFF" stroke-width="1.6235" stroke-miterlimit="10" transform="matrix(1, 0, 0, 1, -15.967925310134888, -413.28750228881836)"/><path d="M 191.300003 569.700012 H 212.800003 V 591.200012 H 191.300003 V 569.700012 Z" fill="#61E41C" stroke="#FFFFFF" stroke-width="1.6235" stroke-miterlimit="10" transform="matrix(1, 0, 0, 1, -15.967925310134888, -413.28750228881836)"/><path d="M 169.800003 569.700012 H 191.300003 V 591.200012 H 169.800003 V 569.700012 Z" fill="#61E41C" stroke="#FFFFFF" stroke-width="1.6235" stroke-miterlimit="10" transform="matrix(1, 0, 0, 1, -15.967925310134888, -413.28750228881836)"/><path d="M 105.300003 526.599976 H 126.800003 V 548.099976 H 105.300003 V 526.599976 Z" transform="matrix(-1, 1.347085915037738e-10, -1.347085915037738e-10, -1, 216.125586271286, 661.4861793518066)" fill="#F5E6E1" stroke="#FFFFFF" stroke-width="1.6235" stroke-miterlimit="10"/><path d="M 83.800003 526.599976 H 105.300003 V 548.099976 H 83.800003 V 526.599976 Z" transform="matrix(-1, 1.347085915037738e-10, -1.347085915037738e-10, -1, 173.10448336601257, 661.4861793518066)" fill="#AD6ED7" stroke="#FFFFFF" stroke-width="1.6235" stroke-miterlimit="10"/><path d="M 62.299999 548.099976 H 83.799999 V 569.599976 H 62.299999 V 548.099976 Z" transform="matrix(-1, 1.347085915037738e-10, -1.347085915037738e-10, -1, 130.08348727226257, 704.5072975158691)" fill="#AD6ED7" stroke="#FFFFFF" stroke-width="1.6235" stroke-miterlimit="10"/><path d="M 40.799999 483.600006 H 62.299999 V 505.100006 H 40.799999 V 483.600006 Z" transform="matrix(-1, 1.346237149535412e-10, -1.346237149535412e-10, -1, 87.06236910820007, 575.4441261291504)" fill="#FB1B8D" stroke="#FFFFFF" stroke-width="1.6235" stroke-miterlimit="10"/><path d="M 40.799999 505.100006 H 62.299999 V 526.600006 H 40.799999 V 505.100006 Z" transform="matrix(-1, 1.347085915037738e-10, -1.347085915037738e-10, -1, 87.06236910820007, 618.4651832580566)" fill="#FB1B8D" stroke="#FFFFFF" stroke-width="1.6235" stroke-miterlimit="10"/><path d="M 40.799999 526.599976 H 62.299999 V 548.099976 H 40.799999 V 526.599976 Z" transform="matrix(-1, 1.346237149535412e-10, -1.346237149535412e-10, -1, 87.06236910820007, 661.4861793518066)" fill="#FB1B8D" stroke="#FFFFFF" stroke-width="1.6235" stroke-miterlimit="10"/><path d="M 40.799999 548.099976 H 62.299999 V 569.599976 H 40.799999 V 548.099976 Z" transform="matrix(-1, 1.347085915037738e-10, -1.347085915037738e-10, -1, 87.06236910820007, 704.5072975158691)" fill="#AD6ED7" stroke="#FFFFFF" stroke-width="1.6235" stroke-miterlimit="10"/><path d="M 126.800003 526.599976 H 148.300003 V 548.099976 H 126.800003 V 526.599976 Z" transform="matrix(-1, 1.346237149535412e-10, -1.346237149535412e-10, -1, 259.14656710624695, 661.4861793518066)" fill="#00BDE5" stroke="#FFFFFF" stroke-width="1.6235" stroke-miterlimit="10"/><path d="M 148.300003 548.099976 H 169.800003 V 569.599976 H 148.300003 V 548.099976 Z" transform="matrix(-1, 1.347085915037738e-10, -1.347085915037738e-10, -1, 302.1676547527313, 704.5072975158691)" fill="#00BDE5" stroke="#FFFFFF" stroke-width="1.6235" stroke-miterlimit="10"/><path d="M 255.899994 548.099976 H 277.399994 V 569.599976 H 255.899994 V 548.099976 Z" fill="#F7DD00" stroke="#FFFFFF" stroke-width="1.6235" stroke-miterlimit="10" transform="matrix(1, 0, 0, 1, -15.967925310134888, -413.28750228881836)"/><path d="M 277.399994 548.099976 H 298.899994 V 569.599976 H 277.399994 V 548.099976 Z" fill="#F7DD00" stroke="#FFFFFF" stroke-width="1.6235" stroke-miterlimit="10" transform="matrix(1, 0, 0, 1, -15.967925310134888, -413.28750228881836)"/><path d="M 298.899994 569.700012 H 320.399994 V 591.200012 H 298.899994 V 569.700012 Z" fill="#FC7406" stroke="#FFFFFF" stroke-width="1.6235" stroke-miterlimit="10" transform="matrix(1, 0, 0, 1, -15.967925310134888, -413.28750228881836)"/><path d="M 234.399994 548.099976 H 255.899994 V 569.599976 H 234.399994 V 548.099976 Z" fill="#F7DD00" stroke="#FFFFFF" stroke-width="1.6235" stroke-miterlimit="10" transform="matrix(1, 0, 0, 1, -15.967925310134888, -413.28750228881836)"/><path d="M 212.800003 569.700012 H 234.300003 V 591.200012 H 212.800003 V 569.700012 Z" fill="#F7DD00" stroke="#FFFFFF" stroke-width="1.6235" stroke-miterlimit="10" transform="matrix(1, 0, 0, 1, -15.967925310134888, -413.28750228881836)"/><path d="M 191.300003 591.200012 H 212.800003 V 612.700012 H 191.300003 V 591.200012 Z" fill="#F7DD00" stroke="#FFFFFF" stroke-width="1.6235" stroke-miterlimit="10" transform="matrix(1, 0, 0, 1, -15.967925310134888, -413.28750228881836)"/><path d="M 169.800003 591.200012 H 191.300003 V 612.700012 H 169.800003 V 591.200012 Z" fill="#61E41C" stroke="#FFFFFF" stroke-width="1.6235" stroke-miterlimit="10" transform="matrix(1, 0, 0, 1, -15.967925310134888, -413.28750228881836)"/><path d="M 105.300003 548.099976 H 126.800003 V 569.599976 H 105.300003 V 548.099976 Z" transform="matrix(-1, 1.347085915037738e-10, -1.347085915037738e-10, -1, 216.125586271286, 704.5072975158691)" fill="#00BDE5" stroke="#FFFFFF" stroke-width="1.6235" stroke-miterlimit="10"/><path d="M 83.800003 548.099976 H 105.300003 V 569.599976 H 83.800003 V 548.099976 Z" transform="matrix(-1, 1.347085915037738e-10, -1.347085915037738e-10, -1, 173.10448336601257, 704.5072975158691)" fill="#AD6ED7" stroke="#FFFFFF" stroke-width="1.6235" stroke-miterlimit="10"/><path d="M 62.299999 569.700012 H 83.799999 V 591.200012 H 62.299999 V 569.700012 Z" transform="matrix(-1, 1.348773037701534e-10, -1.348773037701534e-10, -1, 130.08348727226257, 747.5282936096191)" fill="#AD6ED7" stroke="#FFFFFF" stroke-width="1.6235" stroke-miterlimit="10"/><path d="M 126.800003 548.099976 H 148.300003 V 569.599976 H 126.800003 V 548.099976 Z" transform="matrix(-1, 1.347085915037738e-10, -1.347085915037738e-10, -1, 259.14656710624695, 704.5072975158691)" fill="#00BDE5" stroke="#FFFFFF" stroke-width="1.6235" stroke-miterlimit="10"/><path d="M 148.300003 569.700012 H 169.800003 V 591.200012 H 148.300003 V 569.700012 Z" transform="matrix(-1, 1.346237149535412e-10, -1.346237149535412e-10, -1, 302.1676547527313, 747.5282936096191)" fill="#61E41C" stroke="#FFFFFF" stroke-width="1.6235" stroke-miterlimit="10"/><path d="M 255.899994 569.700012 H 277.399994 V 591.200012 H 255.899994 V 569.700012 Z" fill="#F7DD00" stroke="#FFFFFF" stroke-width="1.6235" stroke-miterlimit="10" transform="matrix(1, 0, 0, 1, -15.967925310134888, -413.28750228881836)"/><path d="M 277.399994 569.700012 H 298.899994 V 591.200012 H 277.399994 V 569.700012 Z" fill="#FC7406" stroke="#FFFFFF" stroke-width="1.6235" stroke-miterlimit="10" transform="matrix(1, 0, 0, 1, -15.967925310134888, -413.28750228881836)"/><path d="M 298.899994 591.200012 H 320.399994 V 612.700012 H 298.899994 V 591.200012 Z" fill="#FC7406" stroke="#FFFFFF" stroke-width="1.6235" stroke-miterlimit="10" transform="matrix(1, 0, 0, 1, -15.967925310134888, -413.28750228881836)"/><path d="M 234.399994 569.700012 H 255.899994 V 591.200012 H 234.399994 V 569.700012 Z" fill="#F7DD00" stroke="#FFFFFF" stroke-width="1.6235" stroke-miterlimit="10" transform="matrix(1, 0, 0, 1, -15.967925310134888, -413.28750228881836)"/><path d="M 212.800003 591.200012 H 234.300003 V 612.700012 H 212.800003 V 591.200012 Z" fill="#F7DD00" stroke="#FFFFFF" stroke-width="1.6235" stroke-miterlimit="10" transform="matrix(1, 0, 0, 1, -15.967925310134888, -413.28750228881836)"/><path d="M 191.300003 612.700012 H 212.800003 V 634.200012 H 191.300003 V 612.700012 Z" fill="#F7DD00" stroke="#FFFFFF" stroke-width="1.6235" stroke-miterlimit="10" transform="matrix(1, 0, 0, 1, -15.967925310134888, -413.28750228881836)"/><path d="M 169.800003 612.700012 H 191.300003 V 634.200012 H 169.800003 V 612.700012 Z" fill="#F7DD00" stroke="#FFFFFF" stroke-width="1.6235" stroke-miterlimit="10" transform="matrix(1, 0, 0, 1, -15.967925310134888, -413.28750228881836)"/><path d="M 105.300003 569.700012 H 126.800003 V 591.200012 H 105.300003 V 569.700012 Z" transform="matrix(-1, 1.346237149535412e-10, -1.346237149535412e-10, -1, 216.125586271286, 747.5282936096191)" fill="#00BDE5" stroke="#FFFFFF" stroke-width="1.6235" stroke-miterlimit="10"/><path d="M 83.800003 569.700012 H 105.300003 V 591.200012 H 83.800003 V 569.700012 Z" transform="matrix(-1, 1.348773037701534e-10, -1.348773037701534e-10, -1, 173.10448336601257, 747.5282936096191)" fill="#00BDE5" stroke="#FFFFFF" stroke-width="1.6235" stroke-miterlimit="10"/><path d="M 62.299999 591.200012 H 83.799999 V 612.700012 H 62.299999 V 591.200012 Z" transform="matrix(-1, 1.346237149535412e-10, -1.346237149535412e-10, -1, 130.08348727226257, 790.5492897033691)" fill="#00BDE5" stroke="#FFFFFF" stroke-width="1.6235" stroke-miterlimit="10"/><path d="M 126.800003 569.700012 H 148.300003 V 591.200012 H 126.800003 V 569.700012 Z" transform="matrix(-1, 1.346237149535412e-10, -1.346237149535412e-10, -1, 259.14656710624695, 747.5282936096191)" fill="#00BDE5" stroke="#FFFFFF" stroke-width="1.6235" stroke-miterlimit="10"/><path d="M 148.300003 591.200012 H 169.800003 V 612.700012 H 148.300003 V 591.200012 Z" transform="matrix(-1, 1.347085915037738e-10, -1.347085915037738e-10, -1, 302.1676547527313, 790.5492897033691)" fill="#61E41C" stroke="#FFFFFF" stroke-width="1.6235" stroke-miterlimit="10"/><path d="M 255.899994 591.200012 H 277.399994 V 612.700012 H 255.899994 V 591.200012 Z" fill="#FC7406" stroke="#FFFFFF" stroke-width="1.6235" stroke-miterlimit="10" transform="matrix(1, 0, 0, 1, -15.967925310134888, -413.28750228881836)"/><path d="M 277.399994 591.200012 H 298.899994 V 612.700012 H 277.399994 V 591.200012 Z" fill="#FC7406" stroke="#FFFFFF" stroke-width="1.6235" stroke-miterlimit="10" transform="matrix(1, 0, 0, 1, -15.967925310134888, -413.28750228881836)"/><path d="M 234.399994 591.200012 H 255.899994 V 612.700012 H 234.399994 V 591.200012 Z" fill="#F7DD00" stroke="#FFFFFF" stroke-width="1.6235" stroke-miterlimit="10" transform="matrix(1, 0, 0, 1, -15.967925310134888, -413.28750228881836)"/><path d="M 212.800003 612.700012 H 234.300003 V 634.200012 H 212.800003 V 612.700012 Z" fill="#F7DD00" stroke="#FFFFFF" stroke-width="1.6235" stroke-miterlimit="10" transform="matrix(1, 0, 0, 1, -15.967925310134888, -413.28750228881836)"/><path d="M 191.300003 634.200012 H 212.800003 V 655.700012 H 191.300003 V 634.200012 Z" fill="#F7DD00" stroke="#FFFFFF" stroke-width="1.6235" stroke-miterlimit="10" transform="matrix(1, 0, 0, 1, -15.967925310134888, -413.28750228881836)"/><path d="M 169.800003 634.200012 H 191.300003 V 655.700012 H 169.800003 V 634.200012 Z" fill="#F7DD00" stroke="#FFFFFF" stroke-width="1.6235" stroke-miterlimit="10" transform="matrix(1, 0, 0, 1, -15.967925310134888, -413.28750228881836)"/><path d="M 105.300003 591.200012 H 126.800003 V 612.700012 H 105.300003 V 591.200012 Z" transform="matrix(-1, 1.347085915037738e-10, -1.347085915037738e-10, -1, 216.125586271286, 790.5492897033691)" fill="#00BDE5" stroke="#FFFFFF" stroke-width="1.6235" stroke-miterlimit="10"/><path d="M 83.800003 591.200012 H 105.300003 V 612.700012 H 83.800003 V 591.200012 Z" transform="matrix(-1, 1.346237149535412e-10, -1.346237149535412e-10, -1, 173.10448336601257, 790.5492897033691)" fill="#00BDE5" stroke="#FFFFFF" stroke-width="1.6235" stroke-miterlimit="10"/><path d="M 126.800003 591.200012 H 148.300003 V 612.700012 H 126.800003 V 591.200012 Z" transform="matrix(-1, 1.347085915037738e-10, -1.347085915037738e-10, -1, 259.14656710624695, 790.5492897033691)" fill="#61E41C" stroke="#FFFFFF" stroke-width="1.6235" stroke-miterlimit="10"/><path d="M 148.300003 612.700012 H 169.800003 V 634.200012 H 148.300003 V 612.700012 Z" transform="matrix(-1, 1.347085915037738e-10, -1.347085915037738e-10, -1, 302.1676547527313, 833.5704078674316)" fill="#61E41C" stroke="#FFFFFF" stroke-width="1.6235" stroke-miterlimit="10"/><path d="M 255.899994 612.700012 H 277.399994 V 634.200012 H 255.899994 V 612.700012 Z" fill="#FC7406" stroke="#FFFFFF" stroke-width="1.6235" stroke-miterlimit="10" transform="matrix(1, 0, 0, 1, -15.967925310134888, -413.28750228881836)"/><path d="M 277.399994 612.700012 H 298.899994 V 634.200012 H 277.399994 V 612.700012 Z" fill="#FC7406" stroke="#FFFFFF" stroke-width="1.6235" stroke-miterlimit="10" transform="matrix(1, 0, 0, 1, -15.967925310134888, -413.28750228881836)"/><path d="M 234.399994 612.700012 H 255.899994 V 634.200012 H 234.399994 V 612.700012 Z" fill="#FC7406" stroke="#FFFFFF" stroke-width="1.6235" stroke-miterlimit="10" transform="matrix(1, 0, 0, 1, -15.967925310134888, -413.28750228881836)"/><path d="M 212.800003 634.200012 H 234.300003 V 655.700012 H 212.800003 V 634.200012 Z" fill="#FC7406" stroke="#FFFFFF" stroke-width="1.6235" stroke-miterlimit="10" transform="matrix(1, 0, 0, 1, -15.967925310134888, -413.28750228881836)"/><path d="M 191.300003 655.700012 H 212.800003 V 677.200012 H 191.300003 V 655.700012 Z" fill="#FC7406" stroke="#FFFFFF" stroke-width="1.6235" stroke-miterlimit="10" transform="matrix(1, 0, 0, 1, -15.967925310134888, -413.28750228881836)"/><path d="M 169.800003 655.700012 H 191.300003 V 677.200012 H 169.800003 V 655.700012 Z" fill="#F7DD00" stroke="#FFFFFF" stroke-width="1.6235" stroke-miterlimit="10" transform="matrix(1, 0, 0, 1, -15.967925310134888, -413.28750228881836)"/><path d="M 105.300003 612.700012 H 126.800003 V 634.200012 H 105.300003 V 612.700012 Z" transform="matrix(-1, 1.347085915037738e-10, -1.347085915037738e-10, -1, 216.125586271286, 833.5704078674316)" fill="#61E41C" stroke="#FFFFFF" stroke-width="1.6235" stroke-miterlimit="10"/><path d="M 83.800003 612.700012 H 105.300003 V 634.200012 H 83.800003 V 612.700012 Z" transform="matrix(-1, 1.347085915037738e-10, -1.347085915037738e-10, -1, 173.10448336601257, 833.5704078674316)" fill="#00BDE5" stroke="#FFFFFF" stroke-width="1.6235" stroke-miterlimit="10"/><path d="M 126.800003 612.700012 H 148.300003 V 634.200012 H 126.800003 V 612.700012 Z" transform="matrix(-1, 1.346237149535412e-10, -1.346237149535412e-10, -1, 259.14656710624695, 833.5704078674316)" fill="#61E41C" stroke="#FFFFFF" stroke-width="1.6235" stroke-miterlimit="10"/><path d="M 148.300003 634.200012 H 169.800003 V 655.700012 H 148.300003 V 634.200012 Z" transform="matrix(-1, 1.348773037701534e-10, -1.348773037701534e-10, -1, 302.1676547527313, 876.5914039611816)" fill="#F7DD00" stroke="#FFFFFF" stroke-width="1.6235" stroke-miterlimit="10"/><path d="M 255.899994 634.200012 H 277.399994 V 655.700012 H 255.899994 V 634.200012 Z" fill="#FC7406" stroke="#FFFFFF" stroke-width="1.6235" stroke-miterlimit="10" transform="matrix(1, 0, 0, 1, -15.967925310134888, -413.28750228881836)"/><path d="M 234.399994 634.200012 H 255.899994 V 655.700012 H 234.399994 V 634.200012 Z" fill="#FC7406" stroke="#FFFFFF" stroke-width="1.6235" stroke-miterlimit="10" transform="matrix(1, 0, 0, 1, -15.967925310134888, -413.28750228881836)"/><path d="M 212.800003 655.700012 H 234.300003 V 677.200012 H 212.800003 V 655.700012 Z" fill="#FC7406" stroke="#FFFFFF" stroke-width="1.6235" stroke-miterlimit="10" transform="matrix(1, 0, 0, 1, -15.967925310134888, -413.28750228881836)"/><path d="M 191.300003 677.200012 H 212.800003 V 698.700012 H 191.300003 V 677.200012 Z" fill="#FC7406" stroke="#FFFFFF" stroke-width="1.6235" stroke-miterlimit="10" transform="matrix(1, 0, 0, 1, -15.967925310134888, -413.28750228881836)"/><path d="M 169.800003 677.200012 H 191.300003 V 698.700012 H 169.800003 V 677.200012 Z" fill="#FC7406" stroke="#FFFFFF" stroke-width="1.6235" stroke-miterlimit="10" transform="matrix(1, 0, 0, 1, -15.967925310134888, -413.28750228881836)"/><path d="M 105.300003 634.200012 H 126.800003 V 655.700012 H 105.300003 V 634.200012 Z" transform="matrix(-1, 1.346237149535412e-10, -1.346237149535412e-10, -1, 216.125586271286, 876.5914039611816)" fill="#61E41C" stroke="#FFFFFF" stroke-width="1.6235" stroke-miterlimit="10"/><path d="M 126.800003 634.200012 H 148.300003 V 655.700012 H 126.800003 V 634.200012 Z" transform="matrix(-1, 1.347085915037738e-10, -1.347085915037738e-10, -1, 259.14656710624695, 876.5914039611816)" fill="#61E41C" stroke="#FFFFFF" stroke-width="1.6235" stroke-miterlimit="10"/><path d="M 148.300003 655.700012 H 169.800003 V 677.200012 H 148.300003 V 655.700012 Z" transform="matrix(-1, 1.347085915037738e-10, -1.347085915037738e-10, -1, 302.1676547527313, 919.6125221252441)" fill="#F7DD00" stroke="#FFFFFF" stroke-width="1.6235" stroke-miterlimit="10"/><path d="M 234.399994 655.700012 H 255.899994 V 677.200012 H 234.399994 V 655.700012 Z" fill="#FC7406" stroke="#FFFFFF" stroke-width="1.6235" stroke-miterlimit="10" transform="matrix(1, 0, 0, 1, -15.967925310134888, -413.28750228881836)"/><path d="M 212.800003 677.200012 H 234.300003 V 698.700012 H 212.800003 V 677.200012 Z" fill="#FC7406" stroke="#FFFFFF" stroke-width="1.6235" stroke-miterlimit="10" transform="matrix(1, 0, 0, 1, -15.967925310134888, -413.28750228881836)"/><path d="M 191.300003 698.700012 H 212.800003 V 720.200012 H 191.300003 V 698.700012 Z" fill="#FC7406" stroke="#FFFFFF" stroke-width="1.6235" stroke-miterlimit="10" transform="matrix(1, 0, 0, 1, -15.967925310134888, -413.28750228881836)"/><path d="M 169.800003 698.700012 H 191.300003 V 720.200012 H 169.800003 V 698.700012 Z" fill="#FC7406" stroke="#FFFFFF" stroke-width="1.6235" stroke-miterlimit="10" transform="matrix(1, 0, 0, 1, -15.967925310134888, -413.28750228881836)"/><path d="M 126.800003 655.700012 H 148.300003 V 677.200012 H 126.800003 V 655.700012 Z" transform="matrix(-1, 1.347085915037738e-10, -1.347085915037738e-10, -1, 259.14656710624695, 919.6125221252441)" fill="#F7DD00" stroke="#FFFFFF" stroke-width="1.6235" stroke-miterlimit="10"/><path d="M 148.300003 677.200012 H 169.800003 V 698.700012 H 148.300003 V 677.200012 Z" transform="matrix(-1, 1.346237149535412e-10, -1.346237149535412e-10, -1, 302.1676547527313, 962.6335182189941)" fill="#F7DD00" stroke="#FFFFFF" stroke-width="1.6235" stroke-miterlimit="10"/><path d="M 255.899994 419.100006 H 277.399994 V 440.600006 H 255.899994 V 419.100006 Z" fill="#191918" stroke="#FFFFFF" stroke-width="1.6235" stroke-miterlimit="10" transform="matrix(1, 0, 0, 1, -15.967925310134888, -413.28750228881836)"/><path d="M 277.399994 419.100006 H 298.899994 V 440.600006 H 277.399994 V 419.100006 Z" fill="#191918" stroke="#FFFFFF" stroke-width="1.6235" stroke-miterlimit="10" transform="matrix(1, 0, 0, 1, -15.967925310134888, -413.28750228881836)"/><path d="M 298.899994 440.600006 H 320.399994 V 462.100006 H 298.899994 V 440.600006 Z" fill="#191918" stroke="#FFFFFF" stroke-width="1.6235" stroke-miterlimit="10" transform="matrix(1, 0, 0, 1, -15.967925310134888, -413.28750228881836)"/><path d="M 320.399994 462.100006 H 341.899994 V 483.600006 H 320.399994 V 462.100006 Z" fill="#191918" stroke="#FFFFFF" stroke-width="1.6235" stroke-miterlimit="10" transform="matrix(1, 0, 0, 1, -15.967925310134888, -413.28750228881836)"/><path d="M 234.399994 419.100006 H 255.899994 V 440.600006 H 234.399994 V 419.100006 Z" fill="#191918" stroke="#FFFFFF" stroke-width="1.6235" stroke-miterlimit="10" transform="matrix(1, 0, 0, 1, -15.967925310134888, -413.28750228881836)"/><path d="M 212.800003 440.600006 H 234.300003 V 462.100006 H 212.800003 V 440.600006 Z" fill="#191918" stroke="#FFFFFF" stroke-width="1.6235" stroke-miterlimit="10" transform="matrix(1, 0, 0, 1, -15.967925310134888, -413.28750228881836)"/><path d="M 191.300003 462.100006 H 212.800003 V 483.600006 H 191.300003 V 462.100006 Z" fill="#191918" stroke="#FFFFFF" stroke-width="1.6235" stroke-miterlimit="10" transform="matrix(1, 0, 0, 1, -15.967925310134888, -413.28750228881836)"/><path d="M 169.800003 462.100006 H 191.300003 V 483.600006 H 169.800003 V 462.100006 Z" fill="#191918" stroke="#FFFFFF" stroke-width="1.6235" stroke-miterlimit="10" transform="matrix(1, 0, 0, 1, -15.967925310134888, -413.28750228881836)"/><path d="M 341.899994 505.100006 H 363.399994 V 526.600006 H 341.899994 V 505.100006 Z" transform="matrix(-4.486004970272184e-11, -1, 1, -4.486004970272184e-11, -179.18181729316711, 455.25131607055664)" fill="#191918" stroke="#FFFFFF" stroke-width="1.6235" stroke-miterlimit="10"/><path d="M 341.899994 483.600006 H 363.399994 V 505.100006 H 341.899994 V 483.600006 Z" transform="matrix(-4.486004970272184e-11, -1, 1, -4.486004970272184e-11, -157.67131924629211, 433.74081802368164)" fill="#191918" stroke="#FFFFFF" stroke-width="1.6235" stroke-miterlimit="10"/><path d="M 341.899994 526.599976 H 363.399994 V 548.099976 H 341.899994 V 526.599976 Z" transform="matrix(-4.486004970272184e-11, -1, 1, -4.486004970272184e-11, -200.69231534004211, 476.76181411743164)" fill="#191918" stroke="#FFFFFF" stroke-width="1.6235" stroke-miterlimit="10"/><path d="M 341.899994 548.099976 H 363.399994 V 569.599976 H 341.899994 V 548.099976 Z" transform="matrix(-4.49026926752083e-11, -1, 1, -4.49026926752083e-11, -222.20281338691711, 498.2723731994629)" fill="#191918" stroke="#FFFFFF" stroke-width="1.6235" stroke-miterlimit="10"/><path d="M 320.399994 569.700012 H 341.899994 V 591.200012 H 320.399994 V 569.700012 Z" transform="matrix(-4.4987059216738956e-11, -1, 1, -4.4987059216738956e-11, -265.22391629219055, 498.2723731994629)" fill="#191918" stroke="#FFFFFF" stroke-width="1.6235" stroke-miterlimit="10"/><path d="M 320.399994 591.200012 H 341.899994 V 612.700012 H 320.399994 V 591.200012 Z" transform="matrix(-4.486004970272184e-11, -1, 1, -4.486004970272184e-11, -286.7344448566437, 519.7828712463379)" fill="#191918" stroke="#FFFFFF" stroke-width="1.6235" stroke-miterlimit="10"/><path d="M 298.899994 612.700012 H 320.399994 V 634.200012 H 298.899994 V 612.700012 Z" transform="matrix(-4.49026926752083e-11, -1, 1, -4.49026926752083e-11, -329.7554409503937, 519.7828712463379)" fill="#191918" stroke="#FFFFFF" stroke-width="1.6235" stroke-miterlimit="10"/><path d="M 277.399994 634.200012 H 298.899994 V 655.700012 H 277.399994 V 634.200012 Z" transform="matrix(-4.4945321769906954e-11, -1, 1, -4.4945321769906954e-11, -372.77652859687805, 519.7828712463379)" fill="#191918" stroke="#FFFFFF" stroke-width="1.6235" stroke-miterlimit="10"/><path d="M 255.899994 655.700012 H 277.399994 V 677.200012 H 255.899994 V 655.700012 Z" transform="matrix(-4.49026926752083e-11, -1, 1, -4.49026926752083e-11, -415.79752469062805, 519.7828712463379)" fill="#191918" stroke="#FFFFFF" stroke-width="1.6235" stroke-miterlimit="10"/><path d="M 234.399994 677.200012 H 255.899994 V 698.700012 H 234.399994 V 677.200012 Z" transform="matrix(-4.49026926752083e-11, -1, 1, -4.49026926752083e-11, -458.81852078437805, 519.7828712463379)" fill="#191918" stroke="#FFFFFF" stroke-width="1.6235" stroke-miterlimit="10"/><path d="M 212.800003 698.700012 H 234.300003 V 720.200012 H 212.800003 V 698.700012 Z" transform="matrix(-4.4945321769906954e-11, -1, 1, -4.4945321769906954e-11, -501.83963894844055, 519.7828712463379)" fill="#191918" stroke="#FFFFFF" stroke-width="1.6235" stroke-miterlimit="10"/><path d="M 191.300003 720.200012 H 212.800003 V 741.700012 H 191.300003 V 720.200012 Z" transform="matrix(-4.49026926752083e-11, -1, 1, -4.49026926752083e-11, -544.8606350421906, 519.7828712463379)" fill="#191918" stroke="#FFFFFF" stroke-width="1.6235" stroke-miterlimit="10"/><path d="M 169.800003 720.200012 H 191.300003 V 741.700012 H 169.800003 V 720.200012 Z" transform="matrix(-4.49026926752083e-11, -1, 1, -4.49026926752083e-11, -566.371255159378, 498.2723731994629)" fill="#191918" stroke="#FFFFFF" stroke-width="1.6235" stroke-miterlimit="10"/><path d="M 105.300003 419.100006 H 126.800003 V 440.600006 H 105.300003 V 419.100006 Z" transform="matrix(-1, 1.347085915037738e-10, -1.347085915037738e-10, -1, 216.125586271286, 446.3810157775879)" fill="#191918" stroke="#FFFFFF" stroke-width="1.6235" stroke-miterlimit="10"/><path d="M 83.800003 419.100006 H 105.300003 V 440.600006 H 83.800003 V 419.100006 Z" transform="matrix(-1, 1.3479289906470626e-10, -1.3479289906470626e-10, -1, 173.10448336601257, 446.3810157775879)" fill="#191918" stroke="#FFFFFF" stroke-width="1.6235" stroke-miterlimit="10"/><path d="M 62.299999 440.600006 H 83.799999 V 462.100006 H 62.299999 V 440.600006 Z" transform="matrix(-1, 1.3453940739260872e-10, -1.3453940739260872e-10, -1, 130.08348727226257, 489.40207290649414)" fill="#191918" stroke="#FFFFFF" stroke-width="1.6235" stroke-miterlimit="10"/><path d="M 40.799999 462.100006 H 62.299999 V 483.600006 H 40.799999 V 462.100006 Z" transform="matrix(-1, 1.346237149535412e-10, -1.346237149535412e-10, -1, 87.06236910820007, 532.4230690002441)" fill="#191918" stroke="#FFFFFF" stroke-width="1.6235" stroke-miterlimit="10"/><path d="M 126.800003 419.100006 H 148.300003 V 440.600006 H 126.800003 V 419.100006 Z" transform="matrix(-1, 1.346237149535412e-10, -1.346237149535412e-10, -1, 259.14656710624695, 446.3810157775879)" fill="#191918" stroke="#FFFFFF" stroke-width="1.6235" stroke-miterlimit="10"/><path d="M 148.300003 440.600006 H 169.800003 V 462.100006 H 148.300003 V 440.600006 Z" transform="matrix(-1, 1.3479289906470626e-10, -1.3479289906470626e-10, -1, 302.1676547527313, 489.40207290649414)" fill="#191918" stroke="#FFFFFF" stroke-width="1.6235" stroke-miterlimit="10"/><path d="M 19.200001 505.100006 H 40.700001 V 526.600006 H 19.200001 V 505.100006 Z" transform="matrix(-8.980543392267393e-11, -1, 1, -8.980543392267393e-11, -501.83963894844055, 132.59347915649414)" fill="#191918" stroke="#FFFFFF" stroke-width="1.6235" stroke-miterlimit="10"/><path d="M 19.200001 483.600006 H 40.700001 V 505.100006 H 19.200001 V 483.600006 Z" transform="matrix(-8.976280135852832e-11, -1, 1, -8.976280135852832e-11, -480.32914090156555, 111.08298110961914)" fill="#191918" stroke="#FFFFFF" stroke-width="1.6235" stroke-miterlimit="10"/><path d="M 19.200001 526.599976 H 40.700001 V 548.099976 H 19.200001 V 526.599976 Z" transform="matrix(-8.976280135852832e-11, -1, 1, -8.976280135852832e-11, -523.3501369953156, 154.10397720336914)" fill="#191918" stroke="#FFFFFF" stroke-width="1.6235" stroke-miterlimit="10"/><path d="M 19.200001 548.099976 H 40.700001 V 569.599976 H 19.200001 V 548.099976 Z" transform="matrix(-8.980543392267393e-11, -1, 1, -8.980543392267393e-11, -544.8606350421906, 175.61447525024414)" fill="#191918" stroke="#FFFFFF" stroke-width="1.6235" stroke-miterlimit="10"/><path d="M 40.799999 569.700012 H 62.299999 V 591.200012 H 40.799999 V 569.700012 Z" transform="matrix(-8.984806648681953e-11, -1, 1, -8.984806648681953e-11, -544.8606350421906, 218.63559341430664)" fill="#191918" stroke="#FFFFFF" stroke-width="1.6235" stroke-miterlimit="10"/><path d="M 40.799999 591.200012 H 62.299999 V 612.700012 H 40.799999 V 591.200012 Z" transform="matrix(-8.976280135852832e-11, -1, 1, -8.976280135852832e-11, -566.371255159378, 240.14609146118164)" fill="#191918" stroke="#FFFFFF" stroke-width="1.6235" stroke-miterlimit="10"/><path d="M 62.299999 612.700012 H 83.799999 V 634.200012 H 62.299999 V 612.700012 Z" transform="matrix(-8.976280135852832e-11, -1, 1, -8.976280135852832e-11, -566.371255159378, 283.16720962524414)" fill="#191918" stroke="#FFFFFF" stroke-width="1.6235" stroke-miterlimit="10"/><path d="M 83.800003 634.200012 H 105.300003 V 655.700012 H 83.800003 V 634.200012 Z" transform="matrix(-8.976280135852832e-11, -1, 1, -8.976280135852832e-11, -566.371255159378, 326.18820571899414)" fill="#191918" stroke="#FFFFFF" stroke-width="1.6235" stroke-miterlimit="10"/><path d="M 105.300003 655.700012 H 126.800003 V 677.200012 H 105.300003 V 655.700012 Z" transform="matrix(-8.976280135852832e-11, -1, 1, -8.976280135852832e-11, -566.371255159378, 369.20920181274414)" fill="#191918" stroke="#FFFFFF" stroke-width="1.6235" stroke-miterlimit="10"/><path d="M 126.800003 677.200012 H 148.300003 V 698.700012 H 126.800003 V 677.200012 Z" transform="matrix(-8.980543392267393e-11, -1, 1, -8.980543392267393e-11, -566.371255159378, 412.23031997680664)" fill="#191918" stroke="#FFFFFF" stroke-width="1.6235" stroke-miterlimit="10"/><path d="M 148.300003 698.700012 H 169.800003 V 720.200012 H 148.300003 V 698.700012 Z" transform="matrix(-8.980543392267393e-11, -1, 1, -8.980543392267393e-11, -566.371255159378, 455.25131607055664)" fill="#191918" stroke="#FFFFFF" stroke-width="1.6235" stroke-miterlimit="10"/>

</svg>