<?xml version="1.0" encoding="utf-8"?>
<svg id="master-artboard" viewBox="0 0 347.73223876953125 332.08685302734375" version="1.1" xmlns="http://www.w3.org/2000/svg" x="0px" y="0px" style="enable-background:new 0 0 700 490;" width="347.73223876953125px" height="332.08685302734375px"><defs><path d="M 0 0 H 1400 V 980 H 0 V 0 Z" id="SVGID_1_"/></defs><rect id="ee-background" x="0" y="0" width="347.73223876953125" height="332.08685302734375" style="fill: white; fill-opacity: 0; pointer-events: none;"/>







<g transform="matrix(-0.6506568789482116, 0.7593955397605895, -0.7593955397605895, -0.6506568789482116, 478.8311839183659, 208.99524920032644)">
	<path d="M 143.5 248.10000610351562 L 135.8000030517578 263.20001220703125 L 135.60000610351562 249.3000030517578 Z" class="st1" style="fill: rgb(38, 43, 103);"/>
	<path class="st2" d="M101.8,232.4c0,2.6-0.1,5.3-0.1,8c0,0,41.4,19.6,85.1,13.8c0,0,0.5-1.3,1.4-3.6&#10;&#9;&#9;C165.4,229.9,131.9,225.9,101.8,232.4z" style="fill: rgb(27, 95, 119);"/>
	<path class="st0" d="M140.8,219.1c-2.9,3.5-5.9,7-8.8,10.6c4.6,0.2,9.2,0.6,13.7,1.3c2.6-3.3,5.3-6.5,8-9.7&#10;&#9;&#9;C149.5,220.3,145.2,219.6,140.8,219.1z" style="fill: rgb(116, 186, 218);"/>
	<path class="st3" d="M102.1,219.9c-0.1,4.1-0.2,8.3-0.3,12.5c9.9-2.1,20.1-3.1,30.2-2.8c2.9-3.5,5.8-7.1,8.8-10.6&#10;&#9;&#9;C128.1,217.6,115,217.8,102.1,219.9z" style="fill: rgb(44, 134, 166);"/>
	<path class="st3" d="M164.2,224c-3.4-1-6.9-2-10.4-2.7c-2.7,3.2-5.4,6.5-8,9.7c3.6,0.6,7.2,1.4,10.7,2.4&#10;&#9;&#9;C158.7,230.1,160.6,226.4,164.2,224z" style="fill: rgb(44, 134, 166);"/>
	<path class="st3" d="M172.3,226.8c-3.4,2.5-6.4,5.5-9.2,8.8c3.7,1.4,7.2,3,10.7,4.8c1.1-3.9,2.2-7.8,3.4-11.7&#10;&#9;&#9;C175.5,228,173.9,227.4,172.3,226.8z" style="fill: rgb(44, 134, 166);"/>
	<path class="st4" d="M173.7,240.4c5.2,2.8,10.1,6.2,14.6,10.2c1.1-3,2.9-7.6,5-13.7c-5.2-3.1-10.6-5.9-16.2-8.2&#10;&#9;&#9;C175.9,232.6,174.8,236.5,173.7,240.4z" style="fill: rgb(8, 67, 85);"/>
	<path class="st0" d="M172.3,226.8c-2.7-1-5.4-1.9-8.1-2.8c-3.6,2.4-5.5,6.1-7.7,9.4c2.2,0.6,4.4,1.4,6.6,2.2&#10;&#9;&#9;C165.9,232.3,168.9,229.2,172.3,226.8z" style="fill: rgb(116, 186, 218);"/>
	<path class="st5" d="M199.2,43c-12.8,0-26-3.8-36.6-10.1c-21.9,22-51.7,68.7-59.1,162.3c27.5-3.7,56.3-1.8,81,8.7&#10;&#9;&#9;C200.5,150.2,215.1,95,199.2,43z" style="fill: rgb(128, 172, 255);"/>
	<path class="st6" d="M210.9,41.9c-3.8,0.8-7.7,1.1-11.7,1.1c15.9,52,1.3,107.2-14.7,161c5.8,2.5,11.4,5.4,16.7,8.9&#10;&#9;&#9;C215.8,165.3,233.3,87.8,210.9,41.9z" style="fill: rgb(65, 155, 204);"/>
	
		<path d="M 185.700001 130.600006 A 25.700001 35.299999 0 0 1 160 165.900005 A 25.700001 35.299999 0 0 1 134.299999 130.600006 A 25.700001 35.299999 0 0 1 160 95.300007 A 25.700001 35.299999 0 0 1 185.700001 130.600006 Z" transform="matrix(0.9638 0.2666 -0.2666 0.9638 40.6177 -37.9315)" class="st2" style="fill: rgb(27, 95, 119);"/>
	<path class="st7" d="M186.8,15c0,0-10.6,4.2-24.3,18c10.6,6.3,23.8,10.1,36.6,10.1c-2.9-9.3-6.7-18.5-11.7-27.6&#10;&#9;&#9;C187.3,15.3,187.1,15.1,186.8,15z" style="fill: rgb(66, 78, 161);"/>
	<path class="st8" d="M187.5,15.4c5,9.1,8.8,18.3,11.7,27.6c4,0,7.9-0.4,11.7-1.1C205.6,31,198,21.9,187.5,15.4z" style="fill: rgb(51, 60, 129);"/>
	<path class="st9" d="M171.7,199.4c-5.7,7.4-11.9,14.6-17.9,21.8c3.5,0.8,7,1.7,10.4,2.7c0.4-0.3,0.9-0.6,1.4-0.8&#10;&#9;&#9;c-0.5,0.2-0.9,0.5-1.4,0.8c2.7,0.8,5.4,1.8,8.1,2.8c0.1,0,0.1-0.1,0.2-0.1c-0.1,0-0.1,0.1-0.2,0.1c1.6,0.6,3.2,1.3,4.8,1.9&#10;&#9;&#9;c2.4-8.2,4.9-16.4,7.4-24.7C180.3,202.3,176,200.7,171.7,199.4z" style="fill: rgb(0, 147, 187);"/>
	<path class="st2" d="M177.1,228.7c5.6,2.4,11,5.1,16.2,8.2c2.3-6.6,5-14.7,7.9-24c-5.3-3.5-10.9-6.4-16.7-8.9&#10;&#9;&#9;C182,212.3,179.5,220.5,177.1,228.7z" style="fill: rgb(27, 95, 119);"/>
	<path class="st0" d="M171.7,199.4c-3.8-1.1-7.7-2.1-11.7-2.9c-6.5,7.4-12.9,14.9-19.2,22.5c4.4,0.5,8.7,1.2,13,2.2&#10;&#9;&#9;C159.8,214,166,206.9,171.7,199.4z" style="fill: rgb(116, 186, 218);"/>
	<path class="st9" d="M103.5,195.3c-0.6,7.9-1.1,16.1-1.4,24.7c12.9-2.1,26-2.4,38.7-0.9c6.3-7.6,12.7-15.1,19.2-22.5&#10;&#9;&#9;C141.7,192.8,122.3,192.7,103.5,195.3z" style="fill: rgb(0, 147, 187);"/>
	<path class="st10" d="M156.4,111.6c3.2-7.6,13.6-7,21.5-6.9c-2-2.5-4.5-4.2-7.4-5c-11-3.1-23.9,8.4-28.7,25.7&#10;&#9;&#9;c-1,3.4-1.5,6.7-1.8,10c5.8-3.2,12.2-5.7,16.4-9.9C159.8,122,154.1,116.2,156.4,111.6z" style="fill: rgb(151, 218, 248);"/>
	<path class="st11" d="M170.2,123.1c-0.8-5.8,5.4-8,12-9.6c-1-3.4-2.4-6.4-4.3-8.8c-7.9-0.1-18.3-0.6-21.5,6.9&#10;&#9;&#9;c-2.3,4.6,3.5,10.4,0,13.8c-4.2,4.2-10.6,6.7-16.4,9.9c-0.6,8.6,1.3,16.3,5.1,21.3C158.9,150,170.8,141.3,170.2,123.1z" style="fill: rgb(199, 233, 251);"/>
	<path class="st10" d="M170.2,123.1c0.7,18.1-11.2,26.9-25.1,33.5c2.1,2.7,4.7,4.7,7.8,5.6c11,3.1,23.9-8.4,28.7-25.7&#10;&#9;&#9;c2.4-8.4,2.4-16.5,0.6-23.1C175.6,115.1,169.3,117.4,170.2,123.1z" style="fill: rgb(151, 218, 248);"/>
	<path class="st12" d="M116.9,238.3c-0.5,2.8,6.8,6.6,17.4,9.3c1-4.1,2.7-8.1,4.4-12C126.7,234.3,117.5,235.3,116.9,238.3z" style="fill: rgb(0, 52, 68);"/>
	<path class="st13" d="M154.8,238.7c1.1,4.2,2.2,8.4,3.3,12.5c8.1,0.2,13.7-0.9,14.1-3.2C172.7,245.2,165.4,241.4,154.8,238.7z" style="fill: rgb(3, 34, 48);"/>
	<path class="st14" d="M145.7,236.7c-2.4-0.4-4.7-0.8-7-1c-1.7,3.9-3.4,7.9-4.4,12c2.8,0.7,5.9,1.4,9.1,2c5.3,0.9,10.4,1.5,14.7,1.6&#10;&#9;&#9;c-1.1-4.2-2.3-8.4-3.3-12.5C152,237.9,148.9,237.3,145.7,236.7z" style="fill: rgb(0, 43, 58);"/>
	<path class="st7" d="M118.7,202.5c0,0-23.9-12.1-32.5,65.6c0,0,17.5-36.2,28.2-31.6C114.4,236.4,124.5,206.5,118.7,202.5z" style="fill: rgb(66, 78, 161);"/>
	<path class="st7" d="M189.1,215.7c0,0,19.3,4.6,0,54.9c0,0,0-23-4.3-27.5C184.8,243.2,184.3,227.8,189.1,215.7z" style="fill: rgb(66, 78, 161);"/>
<path d="M 212.71409606933594 94.43907928466797" style="fill: rgb(209, 134, 77); fill-opacity: 1; stroke: rgb(0, 0, 0); stroke-opacity: 1; stroke-width: 0; paint-order: fill;"/></g>





</svg>